<svg width="870.787" height="533.333" xmlns="http://www.w3.org/2000/svg">
    <path d="M5789.17 3797.38c-55.96 0-101.32 45.36-101.32 101.31S5733.21 4000 5789.17 4000c55.93 0 101.31-45.36 101.31-101.31s-45.38-101.31-101.31-101.31zM1487.35 1368.37H946.059c-291.336 0-529.684-238.36-529.684-529.671 0-291.328 238.348-529.679 529.684-529.679H5523.02c471.75 0 857.71 385.949 857.71 857.69 0 471.74-385.96 857.7-857.7 857.7h-.01c-199.46 0-362.64 163.19-362.64 362.65 0 199.47 163.19 362.66 362.65 362.66h436.46c207.37 0 377.04 169.67 377.04 377.04 0 207.38-169.67 377.04-377.04 377.04h-551.91c-80.74 0-146.79 66.07-146.79 146.79 0 80.74 66.05 146.79 146.79 146.79h97.29c55.71 0 101.3 45.59 101.3 101.31S5560.58 4000 5504.87 4000h-638.41c-134.45 0-149.42-158.84-489.04-158.84h-978.55c-72.71 0-132.19-59.5-132.19-132.19 0-72.7 59.49-132.19 132.19-132.19h126.95c105.35 0 191.54-86.21 191.54-191.53v-.01c0-105.34-86.19-191.54-191.54-191.54h-191.05c-515.91 0-588.78-134.83-679.14-402.99-90.36-268.16-559.64-289.78-559.64-289.78h-641.68c-158.76 0-288.65-129.89-288.65-288.65s129.89-288.64 288.65-288.64h33.04c152.7 0 277.63-124.94 277.63-277.64 0-152.69-124.93-277.63-277.63-277.63" style="fill:#dbe5f4;fill-opacity:1;fill-rule:evenodd;stroke:none" transform="matrix(.13333 0 0 -.13333 0 533.333)"/>
    <path d="m1579.3 637.012 197.66 197.66 197.67-197.66v-2.672l-197.67-197.66-197.66 197.66Zm0 441.708 197.66 197.66 197.67-197.66v-2.67l-197.67-197.671-197.66 197.671v2.67zm0 883.4 197.66 197.66 197.67-197.66v-2.65l-197.67-197.68-197.66 197.68v2.65zm395.33-929.78V680.73l-175.81 175.801 175.81 175.809zm0 441.7v-351.61l-175.81 175.81 175.81 175.8zm0 441.71v-351.62l-175.81 175.81 175.81 175.81zm0 441.71v-351.63l-175.81 175.81 175.81 175.82zm-395.33-351.63v351.63l175.81-175.82-175.81-175.81zm0-1325.1v351.61l175.81-175.809L1579.3 680.73Zm-46.37-371.71h46.37v281.609l175.81-175.809-105.81-105.8h43.71l83.95 83.941 83.95-83.941h43.72l-105.81 105.8 175.81 175.809V309.02H2021v2191.91h-46.37v-53.39l-53.39 53.39h-43.71l97.1-97.1v-2.66l-197.67-197.66-197.66 197.66v2.66l97.1 97.1h-43.71l-53.39-53.39v53.39h-46.37v-581.08c15.94-2.67 31.45-6.7 46.37-11.98v7.88l12.75-12.75c68.84-28.26 124.03-83.46 152.3-152.3l10.76-10.76-4.87-4.88a274.54 274.54 0 0 0 9.29-34.41l17.43 17.43 197.67-197.67v-2.65l-197.67-197.67-112.51 112.52a280.464 280.464 0 0 0-25.11-18.61l115.77-115.76-175.81-175.81v261.7a275.323 275.323 0 0 0-46.37-11.98V309.02M4822.47 637.012l197.66 197.66 197.67-197.66v-2.672l-197.67-197.66-197.66 197.66Zm0 441.708 197.66 197.66 197.67-197.66v-2.67l-197.67-197.671-197.66 197.671v2.67zm0 441.69 197.66 197.67 197.67-197.67v-2.65l-197.67-197.67-197.66 197.67v2.65zm0 441.71 197.66 197.66 197.67-197.66v-2.65l-197.67-197.68-197.66 197.68v2.65zm0 883.42 197.66 197.66 197.67-197.66v-2.66l-197.67-197.67-197.66 197.67v2.66zm0 441.69 197.66 197.68 197.67-197.68v-2.66l-197.67-197.66-197.66 197.66v2.66zm0 441.72 197.66 197.66 197.67-197.66v-2.66l-197.67-197.67-197.66 197.67v2.66zm395.33-2696.61V680.73l-175.81 175.801 175.81 175.809zm0 441.7v-351.61l-175.81 175.81 175.81 175.8zm0 441.71v-351.62l-175.81 175.81 175.81 175.81zm0 1325.11v-351.61l-175.81 175.8 175.81 175.81zm0 441.71v-351.62l-175.81 175.82 175.81 175.8zm-395.33-351.62v351.62l175.81-175.8-175.81-175.82zm0-441.7v351.61l175.81-175.81-175.81-175.8zm0-441.71v351.62l175.81-175.81-175.81-175.81zm0-441.71v351.63l175.81-175.82-175.81-175.81zm0-441.7v351.62l175.81-175.81-175.81-175.81zm0-441.7v351.61l175.81-175.8-175.81-175.81zm0-441.7v351.61l175.81-175.809-175.81-175.801Zm-46.37-371.71h46.37v281.609l175.81-175.809-105.81-105.8h43.71l83.95 83.941 83.96-83.941h43.71l-105.81 105.8 175.81 175.809V309.02h46.38v1824.71c-17.35 17.72-32.92 37.18-46.38 58.11v-186.01l-175.81 175.81L5169 2308.65a363.634 363.634 0 0 0-6.28 37.44l-142.59-142.58-197.66 197.66v2.66l197.66 197.66 146.66-146.66c2.3 11.92 5.15 23.65 8.58 35.15l-133.38 133.37 175.81 175.81V2582.3c13.46 20.92 29.03 40.38 46.38 58.1v978.94a145.818 145.818 0 0 0-3.39 31.25c0 10.72 1.18 21.18 3.39 31.26V4000h-46.38v-227.34l-175.81 175.81 51.53 51.53h-43.71l-29.68-29.67-29.66 29.67h-43.73l51.54-51.53-175.81-175.81v221.01c-16.41-4.91-31.41-12.38-46.37-21.46V309.02M1300.44 1151.86V633.75l-259.05 259.07ZM717.926 633.75v518.11L976.98 892.82 717.926 633.75Zm650.844 1854.16c-68.58-21.44-126.37-67.91-162.56-128.59l94.23 94.22v-485.16c21.1-13.39 44.04-24.14 68.33-31.73v551.26zm0-1119.54h-68.33v-83.77l-83.77 83.77h-64.41l148.18-148.18v-3.92l-291.26-291.25-291.254 291.25v3.92l140.902 140.9a522.882 522.882 0 0 1-86.668-22.26l-54.234-54.23v31.79c-23.809-11.44-46.637-24.64-68.324-39.38V400.379a530.416 530.416 0 0 1 68.324-39.391V501.02l190.648-190.649a527.178 527.178 0 0 1 37.485-1.351h28.285L717.926 565.422v3.93l291.254 291.257 291.26-291.257v-3.93L1044.02 309.02h64.41l192.01 192v-192h68.33v1059.35M5496.67 1220.19l291.25 291.26 291.25-291.26v-3.92l-291.25-291.25-291.25 291.25zm0 1952.53 291.25 291.25 291.25-291.25v-3.92l-291.25-291.26-291.25 291.26v3.92zm582.5-2020.86V633.75l-259.05 259.07 259.05 259.04zm0 650.84v-518.1l-259.05 259.06 259.05 259.04zm-582.5-518.1v518.1l259.04-259.04-259.04-259.06zm0-650.85v518.11l259.04-259.04-259.04-259.07Zm-68.34 3163.63h76.54c4.46 0 8.86.3 13.18.87l-21.38 21.39v3.92l104.98 104.99c-4.76 15.33-13.09 29.13-24 40.41l-80.98-81V4000h-68.34v-202.62zm0-1060.31c22.03 6 44.88 9.97 68.34 11.68v355.63l259.04-259.05-95.61-95.61h64.4l63.42 63.41 63.4-63.41h64.41l-95.61 95.61 259.05 259.05v-335.06c23.93 8.07 46.79 18.49 68.34 30.97v652.95c-21.55 12.48-44.41 22.9-68.34 30.97v-247.08l-259.05 259.05 7.63 7.62h-79.68l7.64-7.62-259.04-259.05v266.67h-68.34v-766.73zm0-2428.05h68.34v192l178.4-178.411c17.86 3.231 35.53 7.071 53 11.403l-231.4 231.41v3.93l291.25 291.257 291.25-291.257v-3.93L5921.8 408.059c84.5 44.722 160.73 103.16 225.71 172.293V1753.08c-29.5 31.37-61.27 60.57-95.12 87.26l-264.47-264.48-291.25 291.25v3.92l145.06 145.07a852.588 852.588 0 0 1-58.27 6.14l-86.79-86.8v89.95a359.289 359.289 0 0 0-68.34 11.67V309.02" style="fill:#b1c6e8;fill-opacity:1;fill-rule:evenodd;stroke:none" transform="matrix(.13333 0 0 -.13333 0 533.333)"/>
    <path d="M1734.35 1152.08H1268.5c-18.88 0-34.31-15.43-34.31-34.31V789.219c0-18.867 15.43-34.309 34.31-34.309h465.85c18.89 0 34.32 15.442 34.32 34.309v328.551c0 18.88-15.43 34.31-34.32 34.31" style="fill:#7da4d9;fill-opacity:1;fill-rule:evenodd;stroke:none" transform="matrix(.13333 0 0 -.13333 0 533.333)"/>
    <path d="M2040.01 1152.08h-465.85c-18.88 0-34.32-15.43-34.32-34.31V789.219c0-18.867 15.44-34.309 34.32-34.309h465.85c18.89 0 34.32 15.442 34.32 34.309v328.551c0 18.88-15.43 34.31-34.32 34.31" style="fill:#a6c3e6;fill-opacity:1;fill-rule:evenodd;stroke:none" transform="matrix(.13333 0 0 -.13333 0 533.333)"/>
    <path d="M1979.53 1020.91h-344.89c-10.78 0-19.6-8.83-19.6-19.6v-95.619c0-10.781 8.82-19.609 19.6-19.609h344.89c10.78 0 19.61 8.828 19.61 19.609v95.619c0 10.77-8.83 19.6-19.61 19.6" style="fill:#7da4d9;fill-opacity:1;fill-rule:evenodd;stroke:none" transform="matrix(.13333 0 0 -.13333 0 533.333)"/>
    <path d="M1828.96 998.031h-169.61c-2.35 0-4.27-1.91-4.27-4.281v-20.859a4.28 4.28 0 0 1 4.27-4.27h169.61a4.28 4.28 0 0 1 4.27 4.27v20.859a4.277 4.277 0 0 1-4.27 4.281M1743.15 951.441h-83.8c-2.35 0-4.27-1.91-4.27-4.269v-20.871a4.28 4.28 0 0 1 4.27-4.27h83.8c2.34 0 4.27 1.918 4.27 4.27v20.871a4.28 4.28 0 0 1-4.27 4.269" style="fill:#e3dfe7;fill-opacity:1;fill-rule:evenodd;stroke:none" transform="matrix(.13333 0 0 -.13333 0 533.333)"/>
    <path d="M1573.49 754.91h558.24c22.62 0 41.14-18.512 41.14-41.14v-393.7c0-22.621-18.52-41.14-41.14-41.14h-558.24c-22.62 0-41.13 18.519-41.13 41.14v393.7c0 22.628 18.51 41.14 41.13 41.14" style="fill:#7da4d9;fill-opacity:1;fill-rule:evenodd;stroke:none" transform="matrix(.13333 0 0 -.13333 0 533.333)"/>
    <path d="M1207.23 754.91h558.23c22.63 0 41.13-18.512 41.13-41.14v-393.7c0-22.621-18.5-41.14-41.13-41.14h-558.23c-22.63 0-41.13 18.519-41.13 41.14v393.7c0 22.628 18.5 41.14 41.13 41.14" style="fill:#a6c3e6;fill-opacity:1;fill-rule:evenodd;stroke:none" transform="matrix(.13333 0 0 -.13333 0 533.333)"/>
    <path d="M1279.69 597.699h413.3c12.92 0 23.49-10.57 23.49-23.488v-114.59c0-12.922-10.57-23.48-23.49-23.48h-413.3c-12.92 0-23.49 10.558-23.49 23.48v114.59c0 12.918 10.57 23.488 23.49 23.488" style="fill:#7da4d9;fill-opacity:1;fill-rule:evenodd;stroke:none" transform="matrix(.13333 0 0 -.13333 0 533.333)"/>
    <path d="M1460.13 570.301h203.23c2.82 0 5.13-2.309 5.13-5.129V540.16c0-2.82-2.31-5.129-5.13-5.129h-203.23c-2.82 0-5.12 2.309-5.12 5.129v25.012c0 2.82 2.3 5.129 5.12 5.129M1562.97 514.469h100.4c2.82 0 5.12-2.309 5.12-5.129v-25.008c0-2.82-2.3-5.133-5.12-5.133h-100.4c-2.83 0-5.13 2.313-5.13 5.133v25.008a5.14 5.14 0 0 0 5.13 5.129" style="fill:#e3dfe7;fill-opacity:1;fill-rule:evenodd;stroke:none" transform="matrix(.13333 0 0 -.13333 0 533.333)"/>
    <path d="M4132.04 3024.41c-9.71-4.13-19.11-8.84-28.17-14.07-9.23-5.34-18.1-11.21-26.53-17.57a263.558 263.558 0 0 1-24.19-20.66 1.79 1.79 0 0 0-1.05-.48c-.4-.05-.81.02-1.16.22-22.42 12.94-44.88 25.84-67.26 38.84a23.238 23.238 0 0 1-8.42 2.65c-2.99.34-6 .1-8.85-.66-2.94-.79-5.75-2.16-8.23-4.05a22.983 22.983 0 0 1-6.02-6.87c-16.25-26.32-31.69-54.83-47.23-81.75a23.26 23.26 0 0 1-2.93-8.69c-.39-3.11-.18-6.23.61-9.16.79-2.95 2.15-5.75 4.06-8.23 1.81-2.39 4.12-4.46 6.86-6.03 21.45-13.25 44.71-25.83 66.64-38.49.35-.2.62-.51.76-.87.16-.37.21-.79.11-1.17l-1.53-6.22.09-.03c-.68-3.02-1.29-6.09-1.87-9.21-.98-5.33-1.79-10.58-2.41-15.73-.62-5.1-1.09-10.37-1.43-15.79-.32-5.44-.48-10.77-.48-15.95 0-5.19.16-10.51.48-15.94.34-5.43.81-10.71 1.43-15.81.62-5.14 1.44-10.39 2.41-15.72.98-5.31 2.1-10.46 3.32-15.47.11-.41.06-.84-.12-1.2-.19-.41-.47-.73-.82-.9-24.49-13.08-49.36-28.47-73.57-42.46l.86-1.08-.74-.92c-1.9-2.48-3.26-5.29-4.05-8.24-.79-2.93-1-6.04-.61-9.15.38-2.99 1.35-5.95 2.94-8.69l50.73-87.88.94.56c.51-.45 1.03-.89 1.57-1.3 2.48-1.89 5.29-3.27 8.23-4.05 2.92-.79 6.04-1 9.13-.61 2.92.37 5.8 1.3 8.47 2.78 22.19 11.78 45.05 26.01 66.96 38.68.33.17.73.23 1.12.19.41-.05.8-.23 1.09-.51a263.21 263.21 0 0 1 24.17-20.63 263.1 263.1 0 0 1 26.5-17.55c9.13-5.27 18.6-10.01 28.36-14.16 9.71-4.12 19.69-7.67 29.88-10.6.4-.11.74-.35.97-.65.26-.34.4-.74.37-1.13v-76.96c0-3.15.65-6.17 1.8-8.96 1.21-2.89 2.96-5.48 5.13-7.62 2.17-2.16 4.74-3.91 7.61-5.1 2.77-1.16 5.8-1.8 8.95-1.8h94.44c3.15 0 6.18.64 8.96 1.8a24.15 24.15 0 0 1 7.63 5.1c2.13 2.14 3.88 4.73 5.09 7.62 1.16 2.79 1.8 5.81 1.8 8.96V2532c0 .47.14.87.37 1.17.25.3.62.54 1.05.64l.3.11c10.25 2.95 20.16 6.48 29.68 10.54 9.69 4.13 19.11 8.84 28.17 14.07a261.15 261.15 0 0 1 50.71 38.23c.32.3.72.48 1.1.51.41.03.83-.07 1.2-.3l66.64-38.47c2.73-1.59 5.68-2.54 8.66-2.92 3.09-.4 6.2-.18 9.14.61 2.94.78 5.75 2.15 8.24 4.05 2.32 1.77 4.35 4.02 5.92 6.66 17.51 28.16 34.06 59.01 50.75 87.92l-.89.54c.17.73.3 1.47.4 2.21.39 3.1.17 6.21-.61 9.13-.79 2.95-2.16 5.77-4.06 8.24a23.18 23.18 0 0 1-6.85 6.03l-66.67 38.48c-.34.2-.59.52-.75.87-.16.38-.2.81-.11 1.21l1.73 7.04-.1.02c.6 2.75 1.16 5.54 1.68 8.36.98 5.33 1.79 10.58 2.42 15.74.62 5.1 1.1 10.38 1.42 15.81.33 5.43.5 10.75.5 15.94 0 5.18-.17 10.5-.5 15.94-.32 5.42-.8 10.7-1.42 15.84-.63 5.1-1.43 10.34-2.42 15.72a261.38 261.38 0 0 1-3.32 15.42c-.09.4-.04.83.13 1.24.18.36.48.68.85.87l66.57 38.43c2.76 1.6 5.05 3.66 6.85 6.04 1.89 2.5 3.27 5.31 4.05 8.22.78 2.92 1 6.04.61 9.13-.38 2.92-1.31 5.8-2.82 8.5-15.87 29.38-34.06 59.02-50.85 88.09l-.94-.56c-.51.46-1.04.89-1.57 1.31a23.92 23.92 0 0 1-8.24 4.05c-2.92.78-6.03 1-9.13.61-3.02-.38-5.96-1.33-8.66-2.88l-4.93-2.83.02-.06-61.83-35.67c-.38-.22-.79-.29-1.19-.24-.39.05-.77.24-1.06.53l-.15.16a266.467 266.467 0 0 1-24.14 20.56 262.566 262.566 0 0 1-26.39 17.48c-9.11 5.26-18.57 10-28.34 14.15-9.71 4.12-19.69 7.67-29.87 10.59-.4.11-.74.35-.97.66-.26.34-.41.73-.38 1.12v76.97c0 3.14-.64 6.17-1.8 8.95a23.547 23.547 0 0 1-5.12 7.63c-2.17 2.16-4.75 3.9-7.6 5.1a23.409 23.409 0 0 1-8.96 1.79h-94.44c-3.15 0-6.18-.64-8.95-1.79a24.25 24.25 0 0 1-7.64-5.1c-4.25-4.25-6.9-10.13-6.9-16.58v-76.97c0-.44-.14-.84-.38-1.17-.24-.3-.61-.53-1.03-.63l-.3-.11a258.93 258.93 0 0 1-29.68-10.54zm33.19-2.91c-9.41-2.71-18.69-6.04-27.74-9.89a244.3 244.3 0 0 1-26.65-13.31 247.602 247.602 0 0 1-25.11-16.65 248.187 248.187 0 0 1-22.93-19.56c-2.56-2.46-5.74-3.9-9.01-4.3-3.34-.41-6.81.28-9.82 2.01-22.11 12.77-45.35 25.4-67.01 38.7-1.05.55-2.15.88-3.25 1.01-1.25.13-2.5.04-3.69-.29-1.23-.32-2.4-.88-3.4-1.65-.96-.73-1.8-1.67-2.43-2.78-16.13-24.38-32.3-55.89-47.23-81.75a9.44 9.44 0 0 1-1.17-3.48c-.17-1.24-.06-2.54.28-3.8.32-1.22.88-2.38 1.65-3.39.72-.96 1.67-1.8 2.77-2.44 19.9-13.15 45.52-26.31 66.6-38.49 3.1-1.77 5.36-4.42 6.65-7.45.46-1.05.78-2.15.99-3.28l1.38-.46-1.54-6.21c-1.21-4.89-2.27-9.78-3.17-14.64-.86-4.73-1.62-9.68-2.24-14.85-.62-5.04-1.08-10.04-1.37-14.98-.29-4.81-.44-9.87-.44-15.13 0-5.27.15-10.31.44-15.13.29-4.94.75-9.95 1.37-14.99.62-5.16 1.38-10.11 2.24-14.84.9-4.87 1.97-9.76 3.17-14.65.9-3.62.46-7.26-1-10.39-1.43-3.13-3.92-5.75-7.12-7.39l-58.98-34.06.02-.03-7-4.02a9.406 9.406 0 0 1-2.78-2.45c-.75-1-1.32-2.15-1.64-3.38-.34-1.27-.45-2.57-.28-3.81.15-1.18.54-2.37 1.17-3.47l43.66-75.66.03.01 3.54-6.11a9.328 9.328 0 0 1 2.43-2.78c1-.76 2.17-1.32 3.4-1.65 1.25-.33 2.55-.43 3.78-.28 1.17.16 2.35.55 3.45 1.18 21.13 13.27 44.96 25.94 66.75 38.52 3.12 1.77 6.52 2.39 9.76 2a15.75 15.75 0 0 0 9.01-4.26l.03-.02c7.21-6.96 14.88-13.5 22.94-19.58 8.03-6.04 16.41-11.6 25.1-16.62 8.6-4.98 17.57-9.46 26.83-13.4 9.08-3.86 18.52-7.2 28.24-9.99 3.41-.98 6.26-3.02 8.27-5.67a15.92 15.92 0 0 0 3.17-9.52l.03-76.96c0-1.29.25-2.52.71-3.61a9.71 9.71 0 0 1 2.1-3.11c.88-.89 1.95-1.62 3.11-2.1 1.1-.46 2.32-.72 3.62-.72h94.44c1.29 0 2.51.26 3.62.72 1.16.48 2.22 1.21 3.11 2.09.89.91 1.61 1.97 2.09 3.12.46 1.09.72 2.32.72 3.61V2532c0 3.67 1.27 7.06 3.42 9.77 2.17 2.76 5.24 4.78 8.72 5.61 9.43 2.7 18.69 6.02 27.75 9.88 9.19 3.91 18.09 8.37 26.65 13.31 8.69 5.03 17.07 10.59 25.1 16.64 8.06 6.07 15.73 12.62 22.94 19.57 2.67 2.57 6.03 4.01 9.49 4.32 3.49.33 7.1-.53 10.12-2.53l65.88-38.04c1.1-.63 2.29-1.02 3.5-1.17 1.23-.16 2.53-.05 3.79.28 1.24.33 2.39.89 3.4 1.65.95.74 1.78 1.67 2.43 2.78 15.65 27.3 31.55 54.47 47.23 81.76a9.61 9.61 0 0 1 1.17 3.49c.15 1.24.06 2.53-.29 3.79-.33 1.24-.88 2.4-1.64 3.39-.72.98-1.65 1.81-2.72 2.44l-66.65 38.48c-3.1 1.77-5.36 4.43-6.65 7.45-.35.82-.64 1.67-.84 2.54l-1.74.35 1.75 7.07c1.21 4.88 2.26 9.77 3.16 14.63.87 4.73 1.62 9.69 2.26 14.86.6 5.04 1.06 10.04 1.36 14.99.3 4.82.44 9.86.44 15.13 0 5.25-.14 10.3-.44 15.12-.3 4.93-.76 9.93-1.36 14.97-.65 5.23-1.4 10.2-2.26 14.9-.9 4.85-1.95 9.73-3.16 14.61-.9 3.64-.45 7.29 1 10.41a15.91 15.91 0 0 0 7.09 7.37l66.02 38.11c1.08.61 2 1.45 2.74 2.43.76.97 1.31 2.14 1.64 3.4.35 1.26.44 2.55.29 3.79a9.563 9.563 0 0 1-1.17 3.48c-16.13 23.97-32.27 55.99-47.23 81.76a9.634 9.634 0 0 1-2.43 2.78 9.686 9.686 0 0 1-3.4 1.65c-1.25.34-2.55.44-3.79.29a9.267 9.267 0 0 1-3.48-1.2l-66.7-38.49a15.584 15.584 0 0 0-10-2c-3.35.47-6.54 2-9.01 4.46a250.327 250.327 0 0 1-22.83 19.47c-7.92 5.96-16.29 11.5-25.01 16.55-8.61 4.97-17.58 9.45-26.84 13.38-9.08 3.87-18.51 7.21-28.22 10-3.43.98-6.27 3.02-8.27 5.66a15.828 15.828 0 0 0-3.19 9.52l-.02 76.97c0 1.29-.26 2.52-.71 3.62a9.757 9.757 0 0 1-2.11 3.1c-.88.9-1.94 1.61-3.1 2.1-1.11.46-2.33.71-3.62.71h-94.44c-1.3 0-2.52-.25-3.62-.71a9.697 9.697 0 0 1-3.12-2.1c-1.72-1.74-2.8-4.12-2.8-6.72v-76.97c0-3.68-1.27-7.07-3.39-9.77-2.21-2.75-5.27-4.78-8.76-5.59zm16.64-110.78c-16.67-6.91-31.71-17.07-44.32-29.69-12.63-12.63-22.79-27.67-29.69-44.33-6.65-16.07-10.32-33.72-10.32-52.26 0-18.55 3.67-36.2 10.32-52.27 6.9-16.67 17.06-31.71 29.69-44.33 12.61-12.63 27.65-22.78 44.32-29.68 16.07-6.66 33.72-10.33 52.27-10.33 18.52 0 36.17 3.67 52.23 10.33 16.7 6.9 31.74 17.05 44.37 29.68 12.62 12.62 22.77 27.66 29.68 44.33 6.65 16.07 10.32 33.72 10.32 52.27 0 18.54-3.67 36.19-10.32 52.26-6.91 16.66-17.06 31.7-29.68 44.33-12.63 12.62-27.67 22.78-44.34 29.68-16.06 6.66-33.72 10.33-52.26 10.33-18.55 0-36.2-3.67-52.27-10.32zm-54.19-19.83a150.705 150.705 0 0 0 48.91 32.68c17.76 7.36 37.2 11.42 57.55 11.42 20.35 0 39.78-4.06 57.55-11.42a150.768 150.768 0 0 0 48.9-32.68 150.732 150.732 0 0 0 32.69-48.91c7.35-17.76 11.41-37.2 11.41-57.54 0-20.35-4.06-39.8-11.41-57.56a150.848 150.848 0 0 0-32.69-48.9 150.497 150.497 0 0 0-48.88-32.67c-17.76-7.38-37.21-11.43-57.57-11.43-20.35 0-39.79 4.06-57.55 11.42a150.546 150.546 0 0 0-48.91 32.68 150.503 150.503 0 0 0-32.68 48.9c-7.36 17.76-11.42 37.2-11.42 57.56 0 20.34 4.06 39.78 11.42 57.54a150.546 150.546 0 0 0 32.68 48.91M230.223 2269.58a259.192 259.192 0 0 1-28.164-14.07 262.493 262.493 0 0 1-26.524-17.57 262.112 262.112 0 0 1-24.191-20.66 1.86 1.86 0 0 0-1.055-.49 1.91 1.91 0 0 0-1.152.23c-22.422 12.94-44.883 25.84-67.266 38.84a23.057 23.057 0 0 1-8.418 2.65 23.703 23.703 0 0 1-17.078-4.71 23.173 23.173 0 0 1-6.035-6.87c-16.25-26.32-31.68-54.83-47.223-81.74a23.3 23.3 0 0 1-2.926-8.71 23.81 23.81 0 0 1 .61-9.15c.789-2.94 2.16-5.75 4.054-8.23a23.038 23.038 0 0 1 6.864-6.03c21.445-13.25 44.715-25.82 66.652-38.49.34-.2.606-.51.758-.87.156-.37.2-.79.102-1.17l-1.54-6.22.094-.03c-.668-3.02-1.285-6.09-1.86-9.21-.976-5.33-1.788-10.58-2.41-15.73a258.987 258.987 0 0 1-1.43-15.79 265.41 265.41 0 0 1-.491-15.96c0-5.18.164-10.5.492-15.93.328-5.43.805-10.71 1.43-15.81.62-5.14 1.437-10.39 2.41-15.73.976-5.29 2.094-10.45 3.324-15.46.102-.41.055-.84-.129-1.21-.183-.4-.473-.72-.82-.89-24.492-13.08-49.36-28.46-73.574-42.46l.867-1.08-.742-.93a23.591 23.591 0 0 1-4.051-8.23 23.796 23.796 0 0 1-.61-9.15c.383-3 1.344-5.96 2.934-8.69l50.738-87.88.938.56a23.658 23.658 0 0 1 9.805-5.35c2.921-.79 6.035-1 9.132-.6 2.914.36 5.79 1.29 8.461 2.77 22.196 11.79 45.047 26.02 66.969 38.67.32.18.719.25 1.113.2.41-.05.801-.23 1.094-.5a263.938 263.938 0 0 1 24.168-20.65 262.97 262.97 0 0 1 26.512-17.54 258.726 258.726 0 0 1 28.351-14.16 257.42 257.42 0 0 1 29.875-10.59c.403-.12.742-.35.973-.65.254-.35.398-.76.375-1.14v-76.96c0-3.15.641-6.18 1.797-8.96a23.387 23.387 0 0 1 5.125-7.62 23.683 23.683 0 0 1 7.601-5.1 23.245 23.245 0 0 1 8.957-1.8h94.446c3.136 0 6.175.64 8.953 1.8 2.855 1.19 5.437 2.94 7.629 5.1a23.618 23.618 0 0 1 5.093 7.62 23.142 23.142 0 0 1 1.805 8.96v76.96c0 .46.137.87.371 1.16.239.31.614.55 1.043.65l.305.11a259.854 259.854 0 0 1 29.672 10.53 258.469 258.469 0 0 1 28.179 14.09 262.518 262.518 0 0 1 26.512 17.54 264.52 264.52 0 0 1 24.199 20.68c.313.3.707.48 1.094.52.406.03.832-.07 1.192-.31l66.652-38.48a23.159 23.159 0 0 1 8.656-2.91c3.098-.39 6.211-.17 9.145.61 2.945.78 5.758 2.16 8.234 4.04a23.518 23.518 0 0 1 5.922 6.67c17.516 28.17 34.059 59 50.758 87.91l-.899.54a23.792 23.792 0 0 1-.215 11.36 23.426 23.426 0 0 1-4.054 8.22 23.03 23.03 0 0 1-6.852 6.04l-66.664 38.48c-.34.2-.597.51-.75.87-.164.37-.207.81-.109 1.2l1.73 7.04-.097.03c.593 2.75 1.156 5.53 1.671 8.36.981 5.33 1.793 10.58 2.415 15.73.625 5.11 1.101 10.39 1.429 15.82.328 5.43.492 10.75.492 15.93 0 5.19-.164 10.51-.492 15.95-.328 5.42-.804 10.69-1.429 15.84-.622 5.1-1.426 10.34-2.415 15.72a255.217 255.217 0 0 1-3.32 15.42c-.097.4-.039.84.133 1.23.172.38.469.69.852.88l66.578 38.44a22.687 22.687 0 0 1 6.84 6.04 23.724 23.724 0 0 1 4.042 8.21c.786 2.92 1 6.04.61 9.13a23.49 23.49 0 0 1-2.813 8.5c-15.863 29.39-34.062 59.02-50.843 88.09l-.95-.57c-.507.47-1.031.91-1.57 1.32a23.729 23.729 0 0 1-8.234 4.05c-2.93.78-6.039 1-9.133.61a23.214 23.214 0 0 1-8.66-2.88l-4.93-2.83.02-.06-61.832-35.67a1.856 1.856 0 0 0-1.18-.24c-.402.06-.777.24-1.063.53l-.16.16a261.034 261.034 0 0 1-24.14 20.56 263.852 263.852 0 0 1-26.383 17.48 260.29 260.29 0 0 1-28.34 14.15 259.767 259.767 0 0 1-29.871 10.59c-.403.12-.742.36-.969.66-.258.34-.41.74-.379 1.12V2359c0 3.14-.64 6.18-1.797 8.95a23.388 23.388 0 0 1-5.133 7.63 23.622 23.622 0 0 1-7.597 5.1 23.24 23.24 0 0 1-8.953 1.8h-94.446c-3.144 0-6.175-.64-8.957-1.8-2.855-1.19-5.437-2.94-7.629-5.1-4.253-4.26-6.894-10.13-6.894-16.58v-76.97c0-.44-.152-.85-.383-1.17-.242-.3-.609-.53-1.035-.63l-.301-.11a260.065 260.065 0 0 1-29.687-10.54zm33.203-2.91c-9.426-2.72-18.692-6.04-27.75-9.89a245.4 245.4 0 0 1-26.645-13.31 248.29 248.29 0 0 1-25.109-16.64 248.567 248.567 0 0 1-22.934-19.57 15.662 15.662 0 0 0-9.008-4.3c-3.339-.41-6.808.28-9.816 2.02-22.105 12.76-45.351 25.39-67.012 38.69a9.302 9.302 0 0 1-3.25 1.01c-1.25.13-2.507.04-3.699-.29a9.517 9.517 0 0 1-5.828-4.42c-16.117-24.39-32.29-55.9-47.223-81.76a9.456 9.456 0 0 1-1.175-3.47c-.157-1.24-.055-2.55.28-3.81a9.687 9.687 0 0 1 1.653-3.39 9.486 9.486 0 0 1 2.781-2.44c19.891-13.15 45.508-26.31 66.598-38.48a15.682 15.682 0 0 0 7.633-10.74l1.371-.46-1.54-6.21a248.217 248.217 0 0 1-3.155-14.64c-.867-4.73-1.621-9.68-2.246-14.85a243.838 243.838 0 0 1-1.375-14.97c-.286-4.83-.438-9.88-.438-15.15 0-5.26.152-10.3.438-15.12.293-4.94.761-9.94 1.375-14.99.625-5.16 1.379-10.11 2.25-14.85.886-4.86 1.953-9.75 3.164-14.64a15.7 15.7 0 0 0-1-10.39c-1.446-3.13-3.926-5.75-7.13-7.4l-58.98-34.05.024-.02-6.989-4.03a9.532 9.532 0 0 1-2.785-2.45 9.683 9.683 0 0 1-1.648-3.38 10.032 10.032 0 0 1-.281-3.81 9.503 9.503 0 0 1 1.175-3.48l43.668-75.64.02.01 3.535-6.12a9.46 9.46 0 0 1 2.441-2.77 9.71 9.71 0 0 1 3.387-1.66c1.25-.33 2.55-.43 3.785-.27 1.176.15 2.356.53 3.457 1.18 21.125 13.27 44.961 25.93 66.754 38.51 3.114 1.77 6.52 2.4 9.746 2a15.839 15.839 0 0 0 9.02-4.25l.023-.03a247.86 247.86 0 0 1 22.95-19.58 246.1 246.1 0 0 1 25.085-16.62c8.61-4.98 17.575-9.46 26.832-13.4a244.049 244.049 0 0 1 28.239-9.99 15.74 15.74 0 0 0 8.265-5.67 15.844 15.844 0 0 0 3.184-9.52l.031-76.96c0-1.29.254-2.52.711-3.61a9.684 9.684 0 0 1 2.102-3.11 9.616 9.616 0 0 1 3.105-2.11 9.549 9.549 0 0 1 3.617-.7h94.446c1.293 0 2.511.25 3.617.7 1.16.5 2.226 1.21 3.113 2.09.891.92 1.613 1.98 2.09 3.13a9.28 9.28 0 0 1 .715 3.61v76.96c0 3.66 1.277 7.06 3.422 9.77a15.77 15.77 0 0 0 8.726 5.6c9.418 2.72 18.68 6.03 27.739 9.89a243.559 243.559 0 0 1 26.656 13.32 246.333 246.333 0 0 1 25.094 16.62 246.831 246.831 0 0 1 22.941 19.58 15.682 15.682 0 0 0 9.488 4.32c3.504.32 7.102-.52 10.133-2.53l65.883-38.04a9.075 9.075 0 0 1 3.48-1.16c1.246-.16 2.539-.06 3.805.27 1.227.33 2.383.89 3.383 1.66a9.324 9.324 0 0 1 2.441 2.77c15.657 27.3 31.555 54.48 47.223 81.77a9.461 9.461 0 0 1 1.176 3.49c.156 1.23.054 2.52-.282 3.78-.328 1.24-.882 2.41-1.64 3.39a9.064 9.064 0 0 1-2.727 2.44l-66.66 38.48a15.664 15.664 0 0 0-7.48 9.99l-1.739.35 1.75 7.06c1.203 4.89 2.266 9.78 3.161 14.64.867 4.73 1.625 9.7 2.25 14.86.613 5.04 1.078 10.05 1.371 14.99.289 4.82.437 9.86.437 15.12s-.148 10.31-.437 15.13c-.293 4.94-.758 9.93-1.368 14.97-.64 5.23-1.394 10.2-2.253 14.9-.895 4.85-1.95 9.73-3.161 14.61a15.738 15.738 0 0 0 1 10.42 15.902 15.902 0 0 0 7.09 7.36l66.012 38.11a9.13 9.13 0 0 1 2.754 2.43c.746.97 1.308 2.14 1.64 3.4.336 1.26.438 2.55.282 3.79a9.537 9.537 0 0 1-1.176 3.48c-16.117 23.97-32.262 55.99-47.223 81.77a9.45 9.45 0 0 1-2.441 2.77 9.433 9.433 0 0 1-3.383 1.65c-1.262.34-2.559.44-3.793.29-1.164-.14-2.355-.54-3.488-1.19l-66.696-38.5a15.503 15.503 0 0 0-9.992-1.99 15.881 15.881 0 0 0-9.015 4.44 247.43 247.43 0 0 1-22.832 19.48 247.834 247.834 0 0 1-25.012 16.55 245.725 245.725 0 0 1-26.828 13.38c-9.09 3.87-18.52 7.21-28.235 10a15.8 15.8 0 0 0-8.265 5.66 15.814 15.814 0 0 0-3.184 9.52l-.027 76.97c0 1.29-.254 2.52-.715 3.62-.473 1.13-1.199 2.19-2.098 3.1a9.516 9.516 0 0 1-3.105 2.1 9.38 9.38 0 0 1-3.617.71h-94.446a9.365 9.365 0 0 1-3.617-.71 9.802 9.802 0 0 1-3.121-2.09c-1.719-1.75-2.797-4.13-2.797-6.73v-76.97c0-3.68-1.273-7.07-3.394-9.77-2.207-2.75-5.27-4.78-8.754-5.59zm16.64-110.79c-16.671-6.9-31.707-17.06-44.332-29.68-12.621-12.63-22.777-27.67-29.683-44.33-6.66-16.07-10.332-33.73-10.332-52.27 0-18.54 3.672-36.2 10.332-52.27 6.906-16.66 17.062-31.69 29.683-44.32 12.621-12.62 27.664-22.78 44.332-29.69 16.071-6.66 33.719-10.33 52.266-10.33 18.527 0 36.172 3.67 52.234 10.33 16.696 6.9 31.735 17.07 44.364 29.69 12.621 12.63 22.777 27.66 29.679 44.33 6.653 16.06 10.329 33.72 10.329 52.26s-3.676 36.2-10.329 52.27c-6.902 16.66-17.058 31.7-29.679 44.33-12.629 12.62-27.668 22.78-44.332 29.68-16.071 6.66-33.723 10.34-52.266 10.34-18.547 0-36.195-3.68-52.266-10.34zm-54.195-19.82a150.837 150.837 0 0 0 48.906 32.68c17.766 7.36 37.203 11.43 57.555 11.43 20.348 0 39.789-4.07 57.547-11.43a150.892 150.892 0 0 0 48.914-32.68 150.816 150.816 0 0 0 32.676-48.91c7.355-17.76 11.414-37.2 11.414-57.55 0-20.34-4.059-39.79-11.414-57.54a150.816 150.816 0 0 0-32.676-48.91 150.864 150.864 0 0 0-48.895-32.68c-17.753-7.36-37.207-11.42-57.566-11.42-20.352 0-39.789 4.06-57.551 11.41a151.03 151.03 0 0 0-48.91 32.69 150.88 150.88 0 0 0-32.676 48.9c-7.359 17.76-11.422 37.2-11.422 57.55 0 20.35 4.063 39.79 11.422 57.55a150.816 150.816 0 0 0 32.676 48.91M858.82 1881.13a112.243 112.243 0 0 1-25.043-10.67c-8-4.63-15.379-10.19-21.976-16.56a3.926 3.926 0 0 0-4.68-.57l-29.695 17.14-.164.11c-1.699.92-3.637 1.08-5.41.62a7.337 7.337 0 0 1-4.477-3.42l-.121-.21-20.895-36.18a7.312 7.312 0 0 1-.707-5.59 7.357 7.357 0 0 1 3.407-4.48l.207-.11 29.453-17.01a3.92 3.92 0 0 0 1.847-4.32h.008c-1.086-4.39-1.922-8.9-2.48-13.51-.547-4.5-.832-9.09-.832-13.77s.285-9.27.832-13.76a111.71 111.71 0 0 1 2.48-13.5 3.924 3.924 0 0 0-2.07-4.46l-29.445-16.99v-.01a7.33 7.33 0 0 1-3.407-4.48c-.5-1.83-.3-3.84.707-5.59l21.012-36.38h.004a7.358 7.358 0 0 1 4.477-3.41 7.344 7.344 0 0 1 5.574.71l.222.12 29.485 17.03a3.93 3.93 0 0 0 4.668-.58 114.377 114.377 0 0 1 21.969-16.56 113.003 113.003 0 0 1 25.21-10.71 3.933 3.933 0 0 0 2.86-3.77v-34.25c0-2.02.828-3.86 2.156-5.19a7.363 7.363 0 0 1 5.192-2.16h42.031c2.011 0 3.851.83 5.183 2.16a7.329 7.329 0 0 1 2.164 5.19v34.25c0 1.85 1.289 3.41 3.02 3.82a112.66 112.66 0 0 1 25.043 10.66 114.466 114.466 0 0 1 21.973 16.56 3.912 3.912 0 0 0 4.875.45l29.493-17.02c1.74-1 3.75-1.2 5.58-.71s3.47 1.67 4.47 3.41l.13.2 20.89 36.2a7.27 7.27 0 0 1 .71 5.58c-.49 1.82-1.66 3.47-3.4 4.47l-29.66 17.13a3.92 3.92 0 0 0-1.854 4.33h-.004a113.69 113.69 0 0 1 2.478 13.5c.55 4.49.83 9.08.83 13.76s-.28 9.28-.83 13.77c-.56 4.61-1.4 9.12-2.478 13.51a3.912 3.912 0 0 0 2.068 4.44l29.45 17c1.74 1.01 2.91 2.65 3.4 4.48.5 1.82.3 3.83-.71 5.58l-.12.22-20.89 36.18h-.01c-1 1.75-2.64 2.93-4.47 3.42-1.82.48-3.84.29-5.58-.72l.01-.01-29.699-17.14a3.913 3.913 0 0 0-4.761.66 113.463 113.463 0 0 1-21.899 16.47 112.426 112.426 0 0 1-25.199 10.72 3.915 3.915 0 0 0-2.856 3.77v34.24c0 2.03-.832 3.86-2.164 5.2a7.337 7.337 0 0 1-5.183 2.16h-42.031a7.363 7.363 0 0 1-5.192-2.16 7.362 7.362 0 0 1-2.156-5.2v-34.24c0-1.86-1.289-3.41-3.02-3.82zm-13.804-63.34c11.562 11.56 27.539 18.72 45.187 18.72 17.641 0 33.617-7.16 45.184-18.72 11.562-11.56 18.715-27.54 18.715-45.19 0-17.63-7.153-33.62-18.715-45.18-11.567-11.57-27.539-18.71-45.184-18.71-17.648 0-33.625 7.14-45.187 18.71-11.563 11.56-18.715 27.55-18.715 45.18 0 17.65 7.152 33.63 18.715 45.19zM2185.89 2760.61c0 6.05-4.91 10.96-10.96 10.96-6.05 0-10.96-4.91-10.96-10.96v-25.78h-25.77c-6.05 0-10.96-4.9-10.96-10.96 0-6.04 4.91-10.96 10.96-10.96h25.77v-25.77c0-6.05 4.91-10.96 10.96-10.96 6.05 0 10.96 4.91 10.96 10.96v25.77h25.78c6.05 0 10.95 4.92 10.95 10.96 0 6.06-4.9 10.96-10.95 10.96h-25.78v25.78M2905.72 3662.83c-8.85-2.56-17.25-6.16-25.04-10.66-8-4.63-15.38-10.2-21.98-16.56a3.897 3.897 0 0 0-4.68-.57l-29.7 17.14-.15.09a7.262 7.262 0 0 1-5.42.62 7.272 7.272 0 0 1-4.47-3.41l-.13-.2-20.89-36.19c-1.01-1.74-1.21-3.75-.71-5.59a7.335 7.335 0 0 1 3.41-4.47l.2-.13 29.46-17c1.54-.88 2.25-2.67 1.84-4.33h.01a113.29 113.29 0 0 1-2.48-13.5c-.54-4.5-.83-9.09-.83-13.77 0-4.67.29-9.26.83-13.76.56-4.61 1.4-9.11 2.49-13.5.44-1.82-.46-3.66-2.08-4.45l-29.44-17v-.01a7.335 7.335 0 0 1-3.41-4.47c-.5-1.83-.3-3.85.71-5.59l21.01-36.39.01.01a7.324 7.324 0 0 1 4.47-3.42 7.29 7.29 0 0 1 5.57.71l.23.12 29.49 17.03c1.54.88 3.43.6 4.66-.57a113.35 113.35 0 0 1 21.97-16.56c7.85-4.54 16.29-8.15 25.21-10.71 1.73-.49 2.85-2.07 2.86-3.78v-34.25c0-2.02.83-3.86 2.16-5.19a7.334 7.334 0 0 1 5.19-2.16h42.03c2.01 0 3.85.83 5.18 2.16a7.3 7.3 0 0 1 2.17 5.19v34.25c0 1.85 1.28 3.41 3.01 3.83 8.86 2.55 17.25 6.15 25.05 10.66a113.35 113.35 0 0 1 21.97 16.56 3.918 3.918 0 0 0 4.88.44l29.49-17.02c1.74-1 3.75-1.21 5.58-.71 1.83.49 3.46 1.66 4.47 3.42l.13.2 20.89 36.19a7.275 7.275 0 0 1 .71 5.58c-.49 1.83-1.66 3.47-3.4 4.47l-29.66 17.13a3.911 3.911 0 0 0-1.85 4.33h-.01a113.364 113.364 0 0 1 3.31 27.26 113.406 113.406 0 0 1-3.31 27.27c-.45 1.83.46 3.66 2.07 4.45l29.45 17.01c1.74 1 2.91 2.64 3.4 4.47.5 1.83.3 3.84-.71 5.57l-.12.23-20.89 36.18h-.01a7.272 7.272 0 0 1-4.47 3.41 7.36 7.36 0 0 1-5.58-.71l-29.69-17.14a3.91 3.91 0 0 0-4.76.64 113.659 113.659 0 0 1-21.9 16.49 112.21 112.21 0 0 1-25.2 10.71c-1.73.48-2.85 2.06-2.85 3.77v34.25c0 2.02-.83 3.85-2.17 5.19a7.328 7.328 0 0 1-5.18 2.16h-42.03c-2.02 0-3.86-.83-5.19-2.16-1.33-1.34-2.16-3.17-2.16-5.19v-34.25c0-1.86-1.29-3.41-3.02-3.82zm-13.8-63.34c11.56 11.56 27.53 18.72 45.18 18.72 17.64 0 33.62-7.16 45.19-18.72 11.56-11.56 18.71-27.54 18.71-45.19 0-17.64-7.15-33.61-18.71-45.18-11.57-11.56-27.54-18.72-45.19-18.72s-33.62 7.16-45.18 18.72c-11.57 11.57-18.72 27.54-18.72 45.18 0 17.65 7.15 33.63 18.72 45.19zM6452.83 3761.8c0 6.05-4.9 10.96-10.96 10.96-6.05 0-10.96-4.91-10.96-10.96v-25.77h-25.77c-6.05 0-10.96-4.9-10.96-10.97 0-6.05 4.91-10.95 10.96-10.95h25.77v-25.78c0-6.05 4.91-10.95 10.96-10.95 6.06 0 10.96 4.9 10.96 10.95v25.78h25.78c6.05 0 10.96 4.9 10.96 10.95 0 6.07-4.91 10.97-10.96 10.97h-25.78v25.77M64.215 902.551c0 6.058-4.903 10.969-10.957 10.969-6.055 0-10.957-4.911-10.957-10.969v-25.77H16.53c-6.054 0-10.965-4.902-10.965-10.961 0-6.05 4.91-10.961 10.965-10.961h25.77V829.09c0-6.051 4.902-10.961 10.957-10.961 6.055 0 10.957 4.91 10.957 10.961v25.769h25.777c6.055 0 10.957 4.911 10.957 10.961 0 6.059-4.902 10.961-10.957 10.961H64.215v25.77M3605.3 3083.13c-8.86-2.56-17.26-6.17-25.05-10.67-8-4.62-15.37-10.2-21.97-16.56a3.896 3.896 0 0 0-4.68-.57l-29.7 17.14-.15.1a7.403 7.403 0 0 1-5.42.61 7.318 7.318 0 0 1-4.48-3.41l-.11-.2-20.9-36.19c-1.01-1.74-1.2-3.75-.71-5.59a7.335 7.335 0 0 1 3.41-4.47l.2-.13 29.46-16.99a3.927 3.927 0 0 0 1.84-4.34h.02c-1.1-4.38-1.93-8.88-2.49-13.5-.55-4.49-.82-9.09-.82-13.77 0-4.66.27-9.26.82-13.76.56-4.61 1.39-9.12 2.49-13.5a3.93 3.93 0 0 0-2.08-4.45l-29.45-17 .01-.01c-1.74-1-2.93-2.65-3.41-4.47-.49-1.83-.3-3.85.71-5.59l21.01-36.39a7.391 7.391 0 0 1 4.48-3.41 7.34 7.34 0 0 1 5.57.71l.23.13 29.48 17.02c1.54.89 3.45.6 4.67-.57 6.6-6.37 13.97-11.94 21.97-16.56a111.26 111.26 0 0 1 25.22-10.71c1.72-.49 2.84-2.07 2.85-3.78V2828c0-2.01.83-3.85 2.16-5.19a7.334 7.334 0 0 1 5.19-2.16h42.02c2.01 0 3.86.83 5.2 2.16a7.37 7.37 0 0 1 2.16 5.19v34.25c0 1.86 1.28 3.41 3.01 3.83 8.86 2.55 17.26 6.15 25.05 10.66 8 4.62 15.37 10.19 21.97 16.56a3.904 3.904 0 0 0 4.88.44l29.49-17.02c1.75-1 3.75-1.2 5.59-.71a7.38 7.38 0 0 1 4.46 3.41l.13.2 20.89 36.2a7.324 7.324 0 0 1 .72 5.58c-.5 1.83-1.67 3.47-3.41 4.47l-29.67 17.13a3.913 3.913 0 0 0-1.84 4.33c1.08 4.38 1.91 8.89 2.47 13.5.54 4.5.83 9.09.83 13.76 0 4.68-.29 9.28-.83 13.78-.56 4.61-1.39 9.11-2.47 13.49-.45 1.83.44 3.66 2.07 4.46l29.44 17c1.74 1 2.91 2.64 3.41 4.47.49 1.84.29 3.84-.72 5.58l-.12.22-20.89 36.18a7.353 7.353 0 0 1-4.47 3.41c-1.83.5-3.84.3-5.59-.7l.01-.01-29.71-17.14a3.885 3.885 0 0 0-4.75.65 114.261 114.261 0 0 1-21.89 16.48 112.19 112.19 0 0 1-25.21 10.7c-1.73.5-2.85 2.07-2.85 3.78v34.26c0 2.01-.83 3.85-2.16 5.18a7.393 7.393 0 0 1-5.2 2.16h-42.02c-2.02 0-3.86-.83-5.19-2.16a7.328 7.328 0 0 1-2.16-5.18v-34.26c0-1.85-1.29-3.41-3.02-3.81zm-13.81-63.35c11.57 11.56 27.55 18.72 45.2 18.72 17.63 0 33.61-7.16 45.18-18.72 11.55-11.56 18.71-27.54 18.71-45.19 0-17.64-7.16-33.61-18.71-45.18-11.57-11.56-27.55-18.72-45.18-18.72-17.65 0-33.63 7.16-45.2 18.72-11.56 11.57-18.71 27.54-18.71 45.18 0 17.65 7.15 33.63 18.71 45.19zM3159.46 3056.59c0 6.05-4.9 10.96-10.96 10.96-6.05 0-10.95-4.91-10.95-10.96v-25.77h-25.78c-6.05 0-10.96-4.91-10.96-10.97 0-6.05 4.91-10.96 10.96-10.96h25.78v-25.77c0-6.05 4.9-10.96 10.95-10.96 6.06 0 10.96 4.91 10.96 10.96v25.77h25.78c6.05 0 10.95 4.91 10.95 10.96 0 6.06-4.9 10.97-10.95 10.97h-25.78v25.77M3204.14 1842.9c0 6.05-4.91 10.96-10.96 10.96-6.05 0-10.96-4.91-10.96-10.96v-25.77h-25.77c-6.06 0-10.96-4.91-10.96-10.96 0-6.06 4.9-10.96 10.96-10.96h25.77v-25.77c0-6.06 4.91-10.97 10.96-10.97 6.05 0 10.96 4.91 10.96 10.97v25.77h25.77c6.05 0 10.97 4.9 10.97 10.96 0 6.05-4.92 10.96-10.97 10.96h-25.77v25.77M2243.62 2386.45c0 6.05-4.92 10.97-10.97 10.97-6.05 0-10.96-4.92-10.96-10.97v-25.77h-25.77c-6.05 0-10.96-4.9-10.96-10.96 0-6.05 4.91-10.96 10.96-10.96h25.77v-25.77c0-6.06 4.91-10.96 10.96-10.96 6.05 0 10.97 4.9 10.97 10.96v25.77h25.77c6.05 0 10.96 4.91 10.96 10.96 0 6.06-4.91 10.96-10.96 10.96h-25.77v25.77M5886.94 2451.31c0 6.05-4.9 10.96-10.96 10.96-6.05 0-10.96-4.91-10.96-10.96v-25.77h-25.77c-6.05 0-10.96-4.91-10.96-10.96 0-6.05 4.91-10.96 10.96-10.96h25.77v-25.77c0-6.05 4.91-10.96 10.96-10.96 6.06 0 10.96 4.91 10.96 10.96v25.77h25.77c6.06 0 10.97 4.91 10.97 10.96 0 6.05-4.91 10.96-10.97 10.96h-25.77v25.77" style="fill:#b1c6e8;fill-opacity:1;fill-rule:evenodd;stroke:none" transform="matrix(.13333 0 0 -.13333 0 533.333)"/>
    <path d="M4279.36 1642.91s65.3-21.64 116.79-84.17c29.12-35.36 385.47-718.041 408.36-762.478 22.87-44.453 22.83-156.793-31.16-225.934-20.96-26.859-81.21-102.019-147.06-183.906H4412.8c77.52 116.316 178.73 268.43 185.99 280.668 11.85 20.012 17.8 39.379-3.85 73.191-21.67 33.821-306.93 381.599-306.93 381.599s-140.23 392.04-8.65 521.03" style="fill:#0f1424;fill-opacity:1;fill-rule:evenodd;stroke:none" transform="matrix(.13333 0 0 -.13333 0 533.333)"/>
    <path d="M4279.36 1642.91s65.3-21.64 116.79-84.17c29.12-35.36 385.47-718.041 408.36-762.478 22.87-44.453 22.83-156.793-31.16-225.934-20.96-26.859-81.21-102.019-147.06-183.906H4412.8c77.52 116.316 178.73 268.43 185.99 280.668 11.85 20.012 17.8 39.379-3.85 73.191-21.67 33.821-306.93 381.599-306.93 381.599s-140.23 392.04-8.65 521.03z" style="fill:none;stroke:#0f1526;stroke-width:2.16;stroke-linecap:butt;stroke-linejoin:miter;stroke-miterlimit:22.9256;stroke-dasharray:none;stroke-opacity:1" transform="matrix(.13333 0 0 -.13333 0 533.333)"/>
    <path d="M3904.56 1697.83s359.31-51.08 374.8-54.92c15.49-3.83 41.72-39.98 55.85-64.35 14.14-24.39 30.74-375.11 38.79-473.32 8.05-98.21-23.63-526.349-14.2-641.342 1.56-19.078 4.49-45.937 8.29-77.476H3293.26c-13.79 127.16-109.64 525.027-117.47 620.628-8.05 98.2-48.77 446.95-38.79 473.31 9.97 26.34 29.97 66.29 44.63 72.59 14.65 6.3 365.07 115.54 365.07 115.54l179.63-19.81 178.23 49.15" style="fill:#c9bfc9;fill-opacity:1;fill-rule:evenodd;stroke:none" transform="matrix(.13333 0 0 -.13333 0 533.333)"/>
    <path d="m3904.56 1697.83 59.39-8.48c-1.64-8.7-5.76-16.87-12.3-24.38-139.6-160-282.27-171.7-446.06-36.57-7.72 6.38-13.14 13.83-16.17 22.21 34.34 10.73 57.28 17.88 57.28 17.88l179.63-19.81 178.23 49.15" style="fill:#fff;fill-opacity:1;fill-rule:evenodd;stroke:none" transform="matrix(.13333 0 0 -.13333 0 533.333)"/>
    <path d="m3841.72 2043.92 3.06-89.45s14.96-182.53 17.24-210.26c1.09-13.39 16.6-31.58 42.54-46.39-117.47-134.64-220.04-143.05-357.86-29.33 23.18 18.84 35.51 39.31 34.42 52.71-2.27 27.71-17.24 210.25-17.24 210.25l-11.52 88.76s72.14-5.64 146.94-15.76c72.14 22.17 142.42 39.47 142.42 39.47" style="fill:#f25159;fill-opacity:1;fill-rule:evenodd;stroke:none" transform="matrix(.13333 0 0 -.13333 0 533.333)"/>
    <path d="M3934.25 1693.59s-41.54-179.55-44.62-216.1c-3.08-36.54-51.9-404.39-46.8-466.57 2.31-28.291 58.52-315.729 119.71-624.498h489.55c-12.01 75.25-22.32 140.148-27.85 176.789-19.9 131.738-33.24 405.539-28.89 574.649 4.34 169.1-37.69 422.86-42.69 446.95-5.01 24.08-52.99 54.18-67.86 59.76l-350.55 49.02" style="fill:#0f1424;fill-opacity:1;fill-rule:evenodd;stroke:none" transform="matrix(.13333 0 0 -.13333 0 533.333)"/>
    <path d="M3880.64 1400.66c-14.73-121.21-41.67-342.75-37.81-389.74 0 0 238.11 259.25 234.5 284.81-3.61 25.56-100.49 216.28-100.49 216.28s-41.62-47.86-96.2-111.35" style="fill:#303950;fill-opacity:1;fill-rule:evenodd;stroke:none" transform="matrix(.13333 0 0 -.13333 0 533.333)"/>
    <path d="M3922.31 1695.3s10.54 9.42 14.31 9.73c3.77.31 68.37-21.55 68.37-21.55s94.24-148.16 95.79-167.08c1.54-18.92-231.43-209.53-231.43-209.53l20.66 174.29s33.77 170.38 44.24 212.43l-11.94 1.71" style="fill:#465168;fill-opacity:1;fill-rule:evenodd;stroke:none" transform="matrix(.13333 0 0 -.13333 0 533.333)"/>
    <path d="M3185.82 1553.3s-60.91-31.99-101.53-102.07c-22.98-39.63-263.43-771.23-278.77-818.789-15.34-47.582 2.99-158.429 67.52-217.859 6.99-6.434 17.61-16.07 30.98-28.16h266.42c-70.57 75.668-134.46 144.379-140.91 152.058-14.96 17.809-23.98 35.961-8.12 72.852 15.86 36.887 240.7 426.478 240.7 426.478s74.53 409.64-76.29 515.49" style="fill:#0f1424;fill-opacity:1;fill-rule:evenodd;stroke:none" transform="matrix(.13333 0 0 -.13333 0 533.333)"/>
    <path d="M3518.06 1659.48s70.23-170.39 79.22-205.95c8.99-35.55 117.03-390.54 122.14-452.72 2.27-27.65-5.97-307.97-15.77-614.388h-484.28c-.22 31.969-.45 58.828-.71 77.988-1.82 133.211-33.24 405.539-65.06 571.68-31.83 166.14-31.67 423.36-30.65 447.94 1.02 24.58 43.46 62.09 57.23 70.02l337.88 105.43" style="fill:#0f1424;fill-opacity:1;fill-rule:evenodd;stroke:none" transform="matrix(.13333 0 0 -.13333 0 533.333)"/>
    <path d="M3618.66 1379.18c34.26-117.19 96.9-331.38 100.76-378.37 0 0-277.15 217.02-277.74 242.83-.61 25.81 63.93 229.74 63.93 229.74s48.85-40.44 113.05-94.2" style="fill:#303950;fill-opacity:1;fill-rule:evenodd;stroke:none" transform="matrix(.13333 0 0 -.13333 0 533.333)"/>
    <path d="M3529.56 1663.1s-11.93 7.6-15.69 7.29c-3.78-.31-63.95-32.4-63.95-32.4s-68.87-161.52-67.31-180.45c1.55-18.92 262.45-169.05 262.45-169.05l-48.75 168.6s-61.06 162.6-78.25 202.39l11.5 3.62" style="fill:#465168;fill-opacity:1;fill-rule:evenodd;stroke:none" transform="matrix(.13333 0 0 -.13333 0 533.333)"/>
    <path d="M3397.58 1989.42a71.92 71.92 0 0 1-5.33-1.42l-.05-.02v.01c-32.19-9.88-54.51-40.94-51.99-75.97 2.95-40.73 38.34-71.35 79.04-68.41 40.73 2.94 71.35 38.32 68.41 79.03-1.69 23.66-14.36 43.92-32.66 56.15 3.85-21.56 2.85-48.77-24.64-53.99l-3.07 42.51c-1.24 17.21-17.98 23.65-29.71 22.11M3928.83 2037.88c1.85-.09 3.68-.22 5.48-.43l.06-.01v.01c33.45-3.89 61.03-30.42 64.87-65.33 4.48-40.56-24.79-77.1-65.35-81.57-40.57-4.48-77.11 24.79-81.59 65.35-2.61 23.59 6.19 45.79 21.97 61.14.11-21.9 6.03-48.48 34.01-48.65l-4.68 42.37c-1.89 17.15 13.41 26.51 25.23 27.12" style="fill:#f25159;fill-opacity:1;fill-rule:evenodd;stroke:none" transform="matrix(.13333 0 0 -.13333 0 533.333)"/>
    <path d="m3629.67 2381.34-.02-.01c-138.58-12.64-241.66-136.39-229.01-275l20.9-229.23c12.65-138.6 136.42-241.66 274.99-229.02l.03.01c138.58 12.64 241.66 136.39 229.01 275l-20.9 229.22c-12.64 138.61-136.41 241.67-275 229.03" style="fill:#f79675;fill-opacity:1;fill-rule:evenodd;stroke:none" transform="matrix(.13333 0 0 -.13333 0 533.333)"/>
    <path d="M3416.24 2219.15c-13.38-34.9-19.21-73.25-15.6-112.82l20.9-229.22c11.91-130.53 122.37-229.53 250.96-230.05-146.52 11.26-173.65 184.42-184.84 275.58-11.17 91.2 22.96 111.6 36.55 116.12 13.57 4.53 226.33 39.83 273.4 45.27 47.08 5.43 70.76-20.69 70.76-20.69l19.78 28.84-19.01 61.56s16.24-.54 35.39-.06a251.995 251.995 0 0 1-9.3 47.64c-27.2 9.6-57.76 21.16-83.13 37.53-56.13 36.21-324.11-9.06-367.56-9.06-6.52 0-16.31-3.91-28.3-10.64" style="fill:#f57867;fill-opacity:1;fill-rule:evenodd;stroke:none" transform="matrix(.13333 0 0 -.13333 0 533.333)"/>
    <path d="M3889.02 2030.69s1.53-16.84 2.97-32.49c1.42-15.64 17.54-31.76 29.53-30.67l-3.24 35.5s2.7 26.65 35.04 29.59c88.79 123.09 59.19 302.93-55.26 387.13-114.45 84.2-342.43 69.47-380.92 52.61-38.5-16.86-73.26-87.96-73.26-87.96s-36.45 27.01-66.3 8.51c-29.86-18.49-116.55-225.37-112.05-274.71 4.5-49.33 108.92-138.38 108.92-138.38 32.32 2.95 39.79-22.76 39.79-22.76l3.25-35.5c11.99 1.09 24.92 19.86 23.5 35.5-1.42 15.65-2.97 32.5-2.97 32.5 1.14.62 2.23 1.27 3.33 1.92 30.56 19.87 24.5 80.52 24.5 80.52l-28.17 39.4 55.9 73.53 64.32 21.15 146.11-5.59s172.31-21.42 157.22-71.56c-15.08-50.16 27.79-98.24 27.79-98.24" style="fill:#0f1526;fill-opacity:1;fill-rule:evenodd;stroke:none" transform="matrix(.13333 0 0 -.13333 0 533.333)"/>
    <path d="M3271.96 2161.52c-4.8-18.6-7.3-33.85-6.43-43.32 3.47-38.02 130.05-221.61 158.16-263.34 14.63 1.33 16.58 110.09 14.33 134.7 1.14.63 2.22 1.27 3.33 1.92 30.56 19.87 24.5 80.52 24.5 80.52l-28.17 39.4 55.9 73.54 61.36 20.18c-30.89 12.45-39.81 25.55-39.81 25.55-126.81-128.31-200.42-121.3-243.17-69.15zm617.06-130.83c1.76-19.3 14.68-105.54 37.16-103.49 67.03 141.2 128.93 288.58 29.07 433.24-11.75-93.09-104.47-149.87-197.33-169.41 49.13-10.7 112.72-30.8 103.31-62.1-15.08-50.16 27.79-98.24 27.79-98.24" style="fill:#070a0d;fill-opacity:1;fill-rule:evenodd;stroke:none" transform="matrix(.13333 0 0 -.13333 0 533.333)"/>
    <path d="M3376.52 2026.74s-106.01 229.84 107.25 269.13c0 0 56.44 111.45 169.53 83.5 113.09-27.94 183.87-27.16 234.6 22.81 0 0 29.08-54.74-6.23-102.6 107.05-83.07 69.86-189.56 26.06-247.04-17.55 119.11-331.36-13.48-372.38 101.01-4.08-109.4-118.79-82.18-158.83-126.81" style="fill:#0f1526;fill-opacity:1;fill-rule:evenodd;stroke:none" transform="matrix(.13333 0 0 -.13333 0 533.333)"/>
    <path d="M3376.52 2026.74s-21.14 45.88-25.54 100.13c41.22 3.92 94.69 33.52 164.15 103.8 0 0 28.37-41.7 159.35-47.07 79.55-3.27 180.69 26.17 237.71 87.51 68.17-77.66 34.48-167.48-4.46-218.58-17.55 119.13-331.35-13.47-372.39 101.02-4.07-109.4-118.78-82.18-158.82-126.81" style="fill:#070a0d;fill-opacity:1;fill-rule:evenodd;stroke:none" transform="matrix(.13333 0 0 -.13333 0 533.333)"/>
    <path d="M6458.44 2001.97c-44.84 168.11-201.5 75.67-268.54-68.26-67.04-143.94-220.66-705.36-353.48-850.72-51.47-56.35-35.73-61.08 11.59-33.64 236.05 136.84 672.15 721.21 610.43 952.62" style="fill:#142b42;fill-opacity:1;fill-rule:evenodd;stroke:none" transform="matrix(.13333 0 0 -.13333 0 533.333)"/>
    <path d="M5804.7 1039.22c-1.62-7.56 5.49-7.91 18.95-2.34 357.86 302.66 547.9 979.25 548.51 981.42a7.003 7.003 0 0 1-4.81 8.65c-3.72 1.07-7.6-1.09-8.66-4.81-.62-2.18-193.25-688-553.99-982.92" style="fill:#167dca;fill-opacity:1;fill-rule:evenodd;stroke:none" transform="matrix(.13333 0 0 -.13333 0 533.333)"/>
    <path d="M6061.88 1912.32c-78.19 122.57-179.62 9.35-196.64-122.23-17.03-131.59 2.48-617.59-66.57-766.93-26.76-57.89-13.03-57.691 17.73-23.871 153.44 168.641 353.13 744.311 245.48 913.031" style="fill:#167dca;fill-opacity:1;fill-rule:evenodd;stroke:none" transform="matrix(.13333 0 0 -.13333 0 533.333)"/>
    <path d="M5784.47 980.281c.61-6.441 6.37-4.91 15.67 2.93 208.57 331.499 188.96 918.429 188.89 920.309a5.847 5.847 0 0 1-6.02 5.68c-3.23-.09-5.77-2.79-5.68-6.02.06-1.9 19.94-596.84-192.86-922.899" style="fill:#142b42;fill-opacity:1;fill-rule:evenodd;stroke:none" transform="matrix(.13333 0 0 -.13333 0 533.333)"/>
    <path d="M6449.57 1495.2c135.14-14.09 82.94-146.21-19.91-215.48-102.86-69.26-517.19-256.21-613.14-376.38-37.19-46.578-42.75-35.008-27.36 4.851 76.77 198.759 474.38 606.399 660.41 587.009" style="fill:#167dca;fill-opacity:1;fill-rule:evenodd;stroke:none" transform="matrix(.13333 0 0 -.13333 0 533.333)"/>
    <path d="M5786.63 873.539c-5.64-2.168-6.77 3.27-4.11 14.332 189.83 312.939 688.57 542.019 690.16 542.769 2.75 1.26 6 .08 7.27-2.67 1.27-2.73.09-5.98-2.66-7.26-1.6-.74-507.15-232.95-690.66-547.171" style="fill:#142b42;fill-opacity:1;fill-rule:evenodd;stroke:none" transform="matrix(.13333 0 0 -.13333 0 533.333)"/>
    <path d="m4519.49 1664.08-33.56-294.88s50.73-690.559 75.68-982.778h376.58l8.27 1175.308-426.97 102.35" style="fill:#0f1526;fill-opacity:1;fill-rule:evenodd;stroke:none" transform="matrix(.13333 0 0 -.13333 0 533.333)"/>
    <path d="m4719.21 1408.32-16.59-104.21 33-917.688h459.1c7.66 63.519 14.57 117.828 20.17 156.969 34.48 241.379 46.29 576.839 46.13 656.229-.15 79.4-92.11 197.22-123.72 205.84-31.6 8.62-418.09 2.86-418.09 2.86" style="fill:#0f1526;fill-opacity:1;fill-rule:evenodd;stroke:none" transform="matrix(.13333 0 0 -.13333 0 533.333)"/>
    <path d="M4565.63 2825.2s-15.67 29.17-28.05 23.71c-12.39-5.48-428.08-617.15-442.16-669.78-14.08-52.63-8.29-145.93 72.16-275.4 80.45-129.48 252.6-447.27 258.68-454.13 6.07-6.85 100.14 56.92 110.17 74.74 0 0 4.12 5.86-1.9 17.76-6.04 11.93-210.69 496.67-223.64 531.46-12.95 34.8 351.65 466.35 369.04 500.86 17.4 34.52 84.41 215.58-114.3 250.78" style="fill:#141a31;fill-opacity:1;fill-rule:evenodd;stroke:none" transform="matrix(.13333 0 0 -.13333 0 533.333)"/>
    <path d="m4898.82 3000.4-181.04-129.31s-129.15-505.65-129.65-528.63c-.51-22.98-49.95-301.82-49.95-301.82s181.04-71.84 206.9-2.88c25.85 68.97 316.09 563.22 330.45 640.8 14.37 77.59-20.11 261.5-37.36 281.61-17.24 20.12-139.35 40.23-139.35 40.23" style="fill:#c3bacc;fill-opacity:1;fill-rule:evenodd;stroke:none" transform="matrix(.13333 0 0 -.13333 0 533.333)"/>
    <path d="M4716.61 2915.22s-163.96-57.7-179.03-66.31c-15.09-8.62-103.65-331.32-110.83-361.49-7.18-30.17 40.24-583.31 40.24-632.17 0-48.86-61.78-659.47-63.22-669.53-1.43-10.06 4.31-21.56 18.68-21.56 14.36 0 175.28 303.16 188.21 337.64 12.93 34.48-28.92 554.56-28.92 554.56l109.4 744.28 25.47 114.58" style="fill:#141a31;fill-opacity:1;fill-rule:evenodd;stroke:none" transform="matrix(.13333 0 0 -.13333 0 533.333)"/>
    <path d="M5203.31 2833.45s234.99-236.85 243.6-251.22c8.62-14.37-235.61-823.27-238.49-860.62-2.88-37.36 120.71-587.64 125.01-602.01 0 0 .72-5.74-3.59-14.36s-14.36-13.65-19.38-17.25c-5.04-3.59-579.74 89.08-625.73 117.82-45.96 28.73-145.1 475.57-145.1 535.91 0 60.34 34.75 291.3 34.75 291.3l282.78 478.81s204.27 306.38 346.15 321.62" style="fill:#18213d;fill-opacity:1;fill-rule:evenodd;stroke:none" transform="matrix(.13333 0 0 -.13333 0 533.333)"/>
    <path d="M5166.08 2870.68s272.22-274.09 280.83-288.45c8.62-14.37-235.61-823.27-238.49-860.62-2.88-37.36 120.71-587.64 125.01-602.01 0 0 .72-5.74-3.59-14.36s-14.36-13.65-19.39-17.25c-2.59-1.84-155.46 21.71-309.78 48.95 133.87 192.94 126.88 512.6 115.2 532.04-13.58 22.65-85.1 71.52-74.24 75.15 10.87 3.62 84.19 5.43 89.62 23.53 5.43 18.11 108.58 590.92 108.58 590.92l68.87 46.43s30.78 222.72 9.05 255.31c-21.65 32.46-165.03 155.83-166.2 156.83 17.82 8.75-2.01 51.75 14.53 53.53" style="fill:#11182c;fill-opacity:1;fill-rule:evenodd;stroke:none" transform="matrix(.13333 0 0 -.13333 0 533.333)"/>
    <path d="M5414.03 2618.32s35.58-28.36 60.2-60.47c24.61-32.11 331.25-673.07 337.57-733.15 6.34-60.08-16.1-161.27-126.58-289.2-110.48-127.92-353.89-446.28-361.74-452.73-7.84-6.47-99.86 79.62-107.77 100.88 0 0-3.51 7.12 5.16 19.13 8.67 12.02 316.51 507.62 336.71 543.49 20.2 35.88-304.65 571.5-317.75 612.31-13.1 40.82-49.53 255.5 174.2 259.74" style="fill:#2c385e;fill-opacity:1;fill-rule:evenodd;stroke:none" transform="matrix(.13333 0 0 -.13333 0 533.333)"/>
    <path d="M5070.8 3225.48c1.66-89.58-21.57-182.12-15.71-271.82 1.21-18.3 9.97-24.38 32.54-39.05 31.27-46.53-54.24-193.68-110.48-202.44-3.73-.58-95.34 71.26-160.23 87.94-33.3 8.55-60.72-33.98-63.22-32.16-13.5 9.8 15.52 85.92 6.06 114.8 11.42 3.06 21.58 28.55 29.68 35.99 52.57 48.49 35.42 169.52-7.65 215.24-32.15 34.14 289.01 91.5 289.01 91.5" style="fill:#f57867;fill-opacity:1;fill-rule:evenodd;stroke:none" transform="matrix(.13333 0 0 -.13333 0 533.333)"/>
    <path d="M5130.05 2879.46c-7.15-20.27-180.84-252.09-180.84-252.09s-6.22-8.33-15.3 2.23c-9.06 10.55-116.09 159.93-116.09 159.93l237.67 177.09-5.43 40.74c3.48 3.71 87.33-107.08 79.99-127.9M4811.55 2954.83c.07.12-.25.35-.91.39-81.24 5.74-93.54-224.44-79.27-269.57.1-.29 49.37 75.34 83.34 105.42 15.37 13.61-32.72 117.62-3.16 163.76" style="fill:#fff;fill-opacity:1;fill-rule:evenodd;stroke:none" transform="matrix(.13333 0 0 -.13333 0 533.333)"/>
    <path d="M5109.58 2945.62s-303.88-376.69-325.43-408.3c-21.55-31.6-186.78-420.97-209.77-504.3 0 0 254.32 317.53 290.24 346.26 35.9 28.73 168.84 139.37 168.84 139.37s3.59 7.18 1.79 12.21c-1.79 5.03-38.78 88.72-38.78 88.72s110.64-16.52 120.69-15.8c10.05.71 59.72 247.54 61.16 254.73 1.44 7.18-68.74 87.11-68.74 87.11" style="fill:#2c385e;fill-opacity:1;fill-rule:evenodd;stroke:none" transform="matrix(.13333 0 0 -.13333 0 533.333)"/>
    <path d="M4812.21 2955.39s-80.38-18.63-93.31-25.82c-12.92-7.18-114.94-176.71-117.81-191.08 0 0-1.43-6.83 4.31-9.71 5.75-2.87 26.94-16.15 29.1-18.31 2.15-2.16-35.57-6.47-35.57-6.47s-4.29-1.62-3.57-8.26c.71-6.64-13.62-639.38-13.62-639.38s125.41 699.65 143.96 745.7c18.55 46.05 68.48 118.9 68.48 118.9l18.03 34.43" style="fill:#2c385e;fill-opacity:1;fill-rule:evenodd;stroke:none" transform="matrix(.13333 0 0 -.13333 0 533.333)"/>
    <path d="M4675.5 3355.82c39.58.21 71.84-31.69 72.07-71.27.21-39.57-31.69-71.83-71.27-72.05-39.56-.23-71.83 31.68-72.06 71.25-.22 39.58 31.69 71.84 71.26 72.07M5153.76 3358.54c39.57.23 71.82-31.68 72.05-71.25.21-39.57-31.68-71.84-71.26-72.06-39.57-.21-71.84 31.69-72.05 71.27-.23 39.56 31.68 71.83 71.26 72.04" style="fill:#f25159;fill-opacity:1;fill-rule:evenodd;stroke:none" transform="matrix(.13333 0 0 -.13333 0 533.333)"/>
    <path d="M4889.89 3724.14h.01c134.99.82 246.05-118.95 246.82-266.18l1.24-243.25c.74-147.23-109.1-268.33-244.09-269.16-134.99-.82-246.06 118.96-246.81 266.17l-1.24 243.26c-.75 147.23 109.07 268.35 244.07 269.16" style="fill:#f79675;fill-opacity:1;fill-rule:evenodd;stroke:none" transform="matrix(.13333 0 0 -.13333 0 533.333)"/>
    <path d="M5127.16 3530.28c6.1-23.01 9.42-47.26 9.56-72.31l1.24-243.26c.68-135.37-92.12-248.67-212.04-266.66-11.76-1.23-19.32-1.98-20.95-2.15h-.12c134.05 13.26 162.43 189.36 162.43 242.46v137.89c0 130.29-72.11 143.89-121.44 143.89h-244.79c-31.63 0-43.02-29.1-43.02-29.1l-12.19 9.28-.02 4.66c-.4 77.97 30.21 148.59 79.15 197.93 122.9-24.01 327.27-64.84 341.36-73.65 7.66-4.78 32.68-25.3 60.83-48.98" style="fill:#f57867;fill-opacity:1;fill-rule:evenodd;stroke:none" transform="matrix(.13333 0 0 -.13333 0 533.333)"/>
    <path d="m4612.36 3528.11 44.09-44.25s21.13 82.29 198.91 56.91c177.79-25.38-163.93 165.21-202.63 144.41-38.7-20.82-72.42-82.01-40.37-157.07" style="fill:#050708;fill-opacity:1;fill-rule:evenodd;stroke:none" transform="matrix(.13333 0 0 -.13333 0 533.333)"/>
    <path d="M5074.19 3524.14s-174.96-19.19-264.01 37.34c-89.04 56.54-164.41 82.75-187.24 52.04-21.65-29.14 65.42-107.82 30.39-241.64-1.91-7.25-6.49-131.02-9.15-138.61-.85 48.43-16.37 172.16-32.42 203.14-47.89 92.44-122.8 161.93-25.5 300.57 59.72 85.08 161.16 124.95 208.28 81.9 153.55-140.28 364.95 41.98 366.25-190.47 0 0 113.88-38.34 8.04-271.37-23.95-.14-31.36-18.27-31.27-33.6l.93-124.41c-85.51-.01-87.25 224.2-64.3 325.11" style="fill:#0f1526;fill-opacity:1;fill-rule:evenodd;stroke:none" transform="matrix(.13333 0 0 -.13333 0 533.333)"/>
    <path d="M4998.83 478.941h495.09c23.94 0 43.53 19.579 43.53 43.528v851.171c0 23.93-19.59 43.52-43.53 43.52h-495.09c-23.94 0-43.52-19.59-43.52-43.52V522.469c0-23.938 19.58-43.528 43.52-43.528" style="fill:#dddbe1;fill-opacity:1;fill-rule:evenodd;stroke:none" transform="matrix(.13333 0 0 -.13333 0 533.333)"/>
    <path d="M5504.83 478.941h400.49c20.14 0 36.62 16.469 36.62 36.618v864.981c0 20.14-16.48 36.62-36.62 36.62h-400.49c-20.14 0-36.62-16.49-36.62-36.62V515.559c0-20.137 16.47-36.618 36.62-36.618M4856.24 1060.84h512.9c0 91.92 99.07 102.07 99.07 102.07h-512.9s-99.07-10.15-99.07-102.07" style="fill:#fff;fill-opacity:1;fill-rule:evenodd;stroke:none" transform="matrix(.13333 0 0 -.13333 0 533.333)"/>
    <path d="M4955.31 629.941h530.8c15.76 0 28.65-12.902 28.65-28.66V415.07c0-15.75-12.89-28.648-28.65-28.648h-530.8c-15.76 0-28.65 12.887-28.65 28.648v186.211c0 15.77 12.89 28.66 28.65 28.66" style="fill:#da1c77;fill-opacity:1;fill-rule:evenodd;stroke:none" transform="matrix(.13333 0 0 -.13333 0 533.333)"/>
    <path d="M5469.41 629.941h116.57c2.63-.031 31.03-1.109 46.95-35.812 16.72-36.41 14.93-72.82 64.46-72.82h21.33c49.54 0 48.14 37.261 64.46 72.82 16.32 35.551 44.33 35.781 46.95 35.812h110.61c15.76 0 28.65-12.902 28.65-28.66V415.07c0-15.75-12.9-28.648-28.65-28.648h-471.33c-15.76 0-28.65 12.887-28.65 28.648v186.211c0 15.77 12.89 28.66 28.65 28.66" style="fill:#f0339b;fill-opacity:1;fill-rule:evenodd;stroke:none" transform="matrix(.13333 0 0 -.13333 0 533.333)"/>
    <path d="M4856.24 739.41h512.9c0 91.91 99.07 102.059 99.07 102.059h-512.9s-99.07-10.149-99.07-102.059" style="fill:#fff;fill-opacity:1;fill-rule:evenodd;stroke:none" transform="matrix(.13333 0 0 -.13333 0 533.333)"/>
    <path d="M6025.33 892.648h-466.46c0 91.911-90.66 102.063-90.66 102.063h466.45s90.67-10.152 90.67-102.063" style="fill:#a2a0b6;fill-opacity:1;fill-rule:evenodd;stroke:none" transform="matrix(.13333 0 0 -.13333 0 533.333)"/>
    <path d="M5542.44 1315.24h357.53c8.67 0 15.76-7.09 15.76-15.76s-7.09-15.76-15.76-15.76h-357.53c-8.66 0-15.75 7.09-15.75 15.76s7.09 15.76 15.75 15.76M5542.44 1141.57h357.53c8.67 0 15.76-7.09 15.76-15.76s-7.09-15.77-15.76-15.77h-357.53c-8.66 0-15.75 7.09-15.75 15.77 0 8.67 7.09 15.76 15.75 15.76M5542.44 778.91h357.53c8.67 0 15.76-7.09 15.76-15.762 0-8.668-7.09-15.757-15.76-15.757h-357.53c-8.66 0-15.75 7.089-15.75 15.757 0 8.672 7.09 15.762 15.75 15.762" style="fill:#dddbe1;fill-opacity:1;fill-rule:evenodd;stroke:none" transform="matrix(.13333 0 0 -.13333 0 533.333)"/>
    <path d="M5031.1 1328.01h345.37c8.67 0 15.76-7.09 15.76-15.76s-7.09-15.76-15.76-15.76H5031.1c-8.66 0-15.76 7.09-15.76 15.76s7.09 15.76 15.76 15.76M5031.1 936.852h345.37c8.67 0 15.76-7.09 15.76-15.762v-.008c0-8.66-7.09-15.754-15.76-15.754H5031.1c-8.66 0-15.76 7.094-15.76 15.754v.008c0 8.672 7.09 15.762 15.76 15.762M5031.1 686.559h345.37c8.67 0 15.76-7.09 15.76-15.758 0-8.68-7.09-15.77-15.76-15.77H5031.1c-8.66 0-15.76 7.09-15.76 15.77 0 8.668 7.09 15.758 15.76 15.758" style="fill:#a2a0b6;fill-opacity:1;fill-rule:evenodd;stroke:none" transform="matrix(.13333 0 0 -.13333 0 533.333)"/>
    <path d="M4745.12 442.422h299.62c14.5 0 26.34 11.84 26.34 26.328v515.109c0 14.481-11.84 26.341-26.34 26.341h-299.62c-14.48 0-26.33-11.86-26.33-26.341V468.75c0-14.488 11.85-26.328 26.33-26.328" style="fill:#dddbe1;fill-opacity:1;fill-rule:evenodd;stroke:none" transform="matrix(.13333 0 0 -.13333 0 533.333)"/>
    <path d="M5051.34 442.422h242.38c12.19 0 22.15 9.969 22.15 22.148v523.469c0 12.181-9.97 22.161-22.15 22.161h-242.38c-12.18 0-22.15-9.98-22.15-22.161V464.57c0-12.179 9.97-22.148 22.15-22.148M4658.83 794.57h310.4c0 55.621 59.96 61.762 59.96 61.762h-310.4s-59.96-6.141-59.96-61.762" style="fill:#fff;fill-opacity:1;fill-rule:evenodd;stroke:none" transform="matrix(.13333 0 0 -.13333 0 533.333)"/>
    <path d="M4718.79 533.781h321.23c9.54 0 17.34-7.793 17.34-17.332V403.762c0-9.532-7.8-17.34-17.34-17.34h-321.23c-9.54 0-17.34 7.797-17.34 17.34v112.687c0 9.539 7.8 17.332 17.34 17.332" style="fill:#da1c77;fill-opacity:1;fill-rule:evenodd;stroke:none" transform="matrix(.13333 0 0 -.13333 0 533.333)"/>
    <path d="M5029.91 533.781h70.55c1.58-.011 18.78-.66 28.41-21.672 10.11-22.027 9.04-44.058 39.01-44.058h12.91c29.97 0 29.14 22.551 39.01 44.058 9.86 21.532 26.83 21.661 28.41 21.672h66.94c9.53 0 17.34-7.793 17.34-17.332V403.762c0-9.532-7.81-17.34-17.34-17.34h-285.24c-9.53 0-17.34 7.797-17.34 17.34v112.687c0 9.539 7.81 17.332 17.34 17.332" style="fill:#f0339b;fill-opacity:1;fill-rule:evenodd;stroke:none" transform="matrix(.13333 0 0 -.13333 0 533.333)"/>
    <path d="M4658.83 600.039h310.4c0 55.633 59.96 61.762 59.96 61.762h-310.4s-59.96-6.129-59.96-61.762" style="fill:#fff;fill-opacity:1;fill-rule:evenodd;stroke:none" transform="matrix(.13333 0 0 -.13333 0 533.333)"/>
    <path d="M5366.33 692.781h-282.28c0 55.617-54.86 61.758-54.86 61.758h282.28s54.86-6.141 54.86-61.758" style="fill:#a2a0b6;fill-opacity:1;fill-rule:evenodd;stroke:none" transform="matrix(.13333 0 0 -.13333 0 533.333)"/>
    <path d="M5074.11 948.52h216.36c5.25 0 9.54-4.301 9.54-9.54 0-5.25-4.29-9.539-9.54-9.539h-216.36c-5.25 0-9.54 4.289-9.54 9.539 0 5.239 4.29 9.54 9.54 9.54M5074.11 843.41h216.36c5.25 0 9.54-4.281 9.54-9.531 0-5.238-4.29-9.539-9.54-9.539h-216.36c-5.25 0-9.54 4.289-9.54 9.539 0 5.262 4.29 9.531 9.54 9.531M5074.11 623.949h216.36c5.25 0 9.54-4.301 9.54-9.539 0-5.25-4.29-9.539-9.54-9.539h-216.36c-5.25 0-9.54 4.289-9.54 9.539 0 5.238 4.29 9.539 9.54 9.539" style="fill:#dddbe1;fill-opacity:1;fill-rule:evenodd;stroke:none" transform="matrix(.13333 0 0 -.13333 0 533.333)"/>
    <path d="M4764.66 956.25h209.01c5.24 0 9.53-4.289 9.53-9.539v-.012c0-5.23-4.29-9.527-9.53-9.527h-209.01c-5.25 0-9.54 4.289-9.54 9.527v.012c0 5.25 4.29 9.539 9.54 9.539M4764.66 719.531h209.01c5.24 0 9.53-4.301 9.53-9.543v-.008c0-5.242-4.29-9.539-9.53-9.539h-209.01c-5.25 0-9.54 4.297-9.54 9.539v.008c0 5.242 4.29 9.543 9.54 9.543M4764.66 568.059h209.01c5.24 0 9.53-4.297 9.53-9.539 0-5.239-4.29-9.54-9.53-9.54h-209.01c-5.25 0-9.54 4.301-9.54 9.54 0 5.242 4.29 9.539 9.54 9.539" style="fill:#a2a0b6;fill-opacity:1;fill-rule:evenodd;stroke:none" transform="matrix(.13333 0 0 -.13333 0 533.333)"/>
    <path d="m1785.46 1760.25-390.24 1.88-.05-23.31 390.23-1.88zm-399.99 21.47 409.79-1.94c5.4 0 9.78-4.38 9.78-9.78l-.1-42.87c0-5.4-4.38-9.78-9.78-9.78l-409.79 1.94c-5.4-.01-9.78 4.38-9.78 9.78l.1 42.87c0 5.4 4.38 9.77 9.78 9.78" style="fill:#0f1526;fill-opacity:1;fill-rule:evenodd;stroke:none" transform="matrix(.13333 0 0 -.13333 0 533.333)"/>
    <path d="m1396.75 1766.16-528.5-602.24 17.523-15.38 528.497 602.24zm-549.672-596.7 541.402 616.93c3.55 4.06 9.73 4.48 13.8.94l32.23-28.28c4.07-3.55 4.48-9.73.93-13.8l-541.401-616.94c-3.551-4.07-9.73-4.49-13.797-.93l-32.226 28.28c-4.071 3.54-4.485 9.73-.938 13.8" style="fill:#0f1526;fill-opacity:1;fill-rule:evenodd;stroke:none" transform="matrix(.13333 0 0 -.13333 0 533.333)"/>
    <path d="M1390.95 1803.83c29.9 3.8 57.21-17.35 61-47.25 3.8-29.9-17.36-57.21-47.26-61-29.89-3.8-57.2 17.36-60.99 47.26-3.8 29.89 17.36 57.2 47.25 60.99" style="fill:#2c385e;fill-opacity:1;fill-rule:evenodd;stroke:none" transform="matrix(.13333 0 0 -.13333 0 533.333)"/>
    <path d="M1240.22 457.059 868.609 1166.92l20.657 10.81 371.604-709.859zM846.734 1166.54l380.676-727.2c2.49-4.789 8.4-6.649 13.19-4.16l37.99 19.879c4.79 2.492 6.65 8.402 4.16 13.203L902.066 1195.44c-2.488 4.8-8.398 6.65-13.187 4.16l-37.984-19.88c-4.79-2.49-6.657-8.4-4.161-13.18" style="fill:#0f1526;fill-opacity:1;fill-rule:evenodd;stroke:none" transform="matrix(.13333 0 0 -.13333 0 533.333)"/>
    <path d="M1225.7 421.801c28.15-10.731 59.69 3.39 70.42 31.539 10.74 28.172-3.38 59.691-31.54 70.43-28.16 10.742-59.69-3.379-70.42-31.54-10.74-28.16 3.38-59.699 31.54-70.429M877.828 1219.13c29.895 3.79 57.203-17.37 61-47.26 3.797-29.89-17.359-57.21-47.258-61.01-29.894-3.79-57.203 17.37-60.996 47.27-3.797 29.89 17.364 57.2 47.254 61" style="fill:#2c385e;fill-opacity:1;fill-rule:evenodd;stroke:none" transform="matrix(.13333 0 0 -.13333 0 533.333)"/>
    <path d="M754.941 330.18h760.539c37.91 0 68.92 31.019 68.92 68.922v.007c0 37.903-31.01 68.911-68.92 68.911H754.941c-37.91 0-68.918-31.008-68.918-68.911v-.007c0-37.903 31.008-68.922 68.918-68.922" style="fill:#2c385e;fill-opacity:1;fill-rule:evenodd;stroke:none" transform="matrix(.13333 0 0 -.13333 0 533.333)"/>
    <path d="M1025.91 330.18h760.53c37.91 0 68.92 31.019 68.92 68.922v.007c0 37.903-31.01 68.911-68.92 68.911h-760.53c-37.914 0-68.926-31.008-68.926-68.911v-.007c0-37.903 31.012-68.922 68.926-68.922" style="fill:#0f1526;fill-opacity:1;fill-rule:evenodd;stroke:none" transform="matrix(.13333 0 0 -.13333 0 533.333)"/>
    <path d="M1707.07 1641.83h200.46c58.15 0 105.73 47.58 105.73 105.73h-411.92c0-58.15 47.58-105.73 105.73-105.73" style="fill:#fff;fill-opacity:1;fill-rule:evenodd;stroke:none" transform="matrix(.13333 0 0 -.13333 0 533.333)"/>
    <path d="M1710.87 1662.92h120.44c34.94 0 63.53 28.6 63.53 63.54h-247.5c0-34.94 28.58-63.54 63.53-63.54" style="fill:#d1efec;fill-opacity:1;fill-rule:evenodd;stroke:none" transform="matrix(.13333 0 0 -.13333 0 533.333)"/>
    <path d="M1639.66 1796.08h335.28c44.48 0 80.87-36.39 80.87-80.87h-497.02c0 44.48 36.39 80.87 80.87 80.87" style="fill:#2c385e;fill-opacity:1;fill-rule:evenodd;stroke:none" transform="matrix(.13333 0 0 -.13333 0 533.333)"/>
    <path d="M1639.66 1796.08h153.31c44.48 0 80.87-36.39 80.87-80.87h-315.05c0 44.48 36.39 80.87 80.87 80.87" style="fill:#050708;fill-opacity:1;fill-rule:evenodd;stroke:none" transform="matrix(.13333 0 0 -.13333 0 533.333)"/>
    <path d="M5686.45 3300.35c-2.36-3.32-6.98-4.1-10.31-1.73-3.33 2.36-4.1 6.97-1.74 10.31 28.97 40.48 67.33 73.79 111.88 96.71 42.95 22.1 91.65 34.58 143.22 34.58 86.55 0 164.92-35.08 221.65-91.81 56.72-56.72 91.81-135.09 91.81-221.65 0-86.55-35.09-164.92-91.81-221.64-56.73-56.73-135.1-91.81-221.65-91.81-72.72 0-139.68 24.79-192.88 66.39-54.34 42.48-94.31 102.49-111.4 171.52-.97 3.96 1.46 7.98 5.42 8.95 3.96.97 7.97-1.46 8.96-5.42 16.27-65.77 54.35-122.94 106.11-163.41 50.65-39.6 114.45-63.2 183.79-63.2 82.46 0 157.12 33.42 211.15 87.47 54.04 54.03 87.47 128.69 87.47 211.15 0 82.47-33.43 157.13-87.47 211.17-54.03 54.03-128.69 87.46-211.15 87.46-49.18 0-95.58-11.87-136.45-32.9-42.47-21.86-79.02-53.59-106.6-92.14" style="fill:#0f1526;fill-opacity:1;fill-rule:evenodd;stroke:none" transform="matrix(.13333 0 0 -.13333 0 533.333)"/>
    <path d="M6014.97 3183.92c17.64 65.33 50.67 90.75 54.09 93.24a6.402 6.402 0 0 0 7.24.51c26.66-15.83 42.25-35.36 50.4-54.41 11.3-26.46 8.11-52.25.17-66.4l-128.54-222.65c-8.13-14.06-29.02-29.98-57.84-33.45-20.49-2.47-45.12 1.25-72.08 16.32-2.22 1.15-3.67 3.54-3.45 6.19 0 .12 3.39 43.24 53.53 93.69 1.99 2.18 5.29 2.77 7.92 1.23.13-.06 42.46-24.5 55.45-2.63l65.96 114.27c12.3 21.3-26.24 44.77-29.64 46.79-2.59 1.34-3.99 4.36-3.21 7.3zm58.54 80.48c-8.3-7.2-30.78-30.31-44.96-79.28 12.31-8.2 46.21-34.13 30.3-61.68l-66.16-114.53c-16.08-26.78-55.05-10.57-68.23-4.07-35.39-36.84-44.13-67.9-46.18-78.59 22.84-11.94 43.5-14.89 60.71-12.82 24.45 2.95 41.78 15.83 48.31 27.15l128.49 222.53c6.4 11.42 8.77 32.71-.82 55.17-6.81 15.92-19.69 32.31-41.46 46.12" style="fill:#0f1526;fill-opacity:1;fill-rule:evenodd;stroke:none" transform="matrix(.13333 0 0 -.13333 0 533.333)"/>
    <text xml:space="preserve" transform="matrix(1.33333 0 0 1.33333 756.377 122.823)" style="font-variant:normal;font-weight:800;font-size:24.5255px;font-family:OpenSans;-inkscape-font-specification:OpenSans-Extrabold;writing-mode:lr-tb;fill:#0f1526;fill-opacity:1;fill-rule:nonzero;stroke:none"><tspan x="0 12.581581" y="0">24</tspan></text>
    <path d="M3943.21 3642.97h427.01c36.6 0 66.54-29.95 66.54-66.54V3204.48c0-3.07-1.74-5.69-4.58-6.86-2.83-1.18-5.92-.57-8.09 1.61l-113.4 113.39h-367.48c-36.59 0-66.53 29.94-66.53 66.54v197.27c0 36.6 29.94 66.54 66.53 66.54" style="fill:#b1c6e8;fill-opacity:1;fill-rule:evenodd;stroke:none" transform="matrix(.13333 0 0 -.13333 0 533.333)"/>
    <path d="M4319.77 3668.64h-427.02c-15.86 0-30.3-6.5-40.77-16.97-10.47-10.47-16.97-24.91-16.97-40.78v-197.26c0-15.87 6.5-30.31 16.97-40.78 10.47-10.47 24.91-16.97 40.77-16.97h371.13l113.64-113.65v368.66c0 15.87-6.5 30.31-16.97 40.78-10.47 10.47-24.91 16.97-40.78 16.97zm-427.02 17.59h427.02c20.72 0 39.56-8.48 53.22-22.13 13.64-13.65 22.11-32.49 22.11-53.21v-371.94c0-3.28-.97-6.39-2.74-9.02-1.74-2.62-4.23-4.7-7.27-5.96h-.02c-3.07-1.26-6.28-1.57-9.32-.96-3.12.62-6 2.12-8.34 4.46l-110.81 110.82h-363.85c-20.72 0-39.55 8.48-53.21 22.12-13.64 13.65-22.11 32.48-22.11 53.22v197.26c0 20.73 8.47 39.57 22.11 53.21 13.66 13.65 32.49 22.13 53.21 22.13" style="fill:#fff;fill-opacity:1;fill-rule:evenodd;stroke:none" transform="matrix(.13333 0 0 -.13333 0 533.333)"/>
    <path d="M3889.21 3612.68c-2.66 0-4.82 2.15-4.82 4.8 0 2.66 2.16 4.81 4.82 4.81h434.11c2.65 0 4.81-2.15 4.81-4.81 0-2.65-2.16-4.8-4.81-4.8h-434.11M3996.41 3565.76c-2.65 0-4.8 2.16-4.8 4.81 0 2.66 2.15 4.81 4.8 4.81h326.91c2.65 0 4.81-2.15 4.81-4.81 0-2.65-2.16-4.81-4.81-4.81zm-107.2 0a4.82 4.82 0 0 0-4.82 4.81c0 2.66 2.16 4.81 4.82 4.81h45.98c2.66 0 4.81-2.15 4.81-4.81 0-2.65-2.15-4.81-4.81-4.81h-45.98M3889.21 3518.85c-2.66 0-4.82 2.15-4.82 4.81 0 2.65 2.16 4.8 4.82 4.8h434.11c2.65 0 4.81-2.15 4.81-4.8 0-2.66-2.16-4.81-4.81-4.81h-434.11M4009.94 3455.25a4.82 4.82 0 0 0-4.82 4.81 4.82 4.82 0 0 0 4.82 4.81h313.38c2.65 0 4.81-2.16 4.81-4.81 0-2.65-2.16-4.81-4.81-4.81h-313.38M4149.87 3404.36c-2.65 0-4.8 2.16-4.8 4.82 0 2.64 2.15 4.8 4.8 4.8h173.45c2.65 0 4.81-2.16 4.81-4.8a4.82 4.82 0 0 0-4.81-4.82h-173.45M4050.49 3404.36c-2.66 0-4.82 2.16-4.82 4.82 0 2.64 2.16 4.8 4.82 4.8h62.01c2.65 0 4.81-2.16 4.81-4.8a4.82 4.82 0 0 0-4.81-4.82h-62.01" style="fill:#fff;fill-opacity:1;fill-rule:evenodd;stroke:none" transform="matrix(.13333 0 0 -.13333 0 533.333)"/>
    <path d="M6408.16 336.66c0 6.059-4.91 10.961-10.97 10.961-6.05 0-10.95-4.902-10.95-10.961v-25.769h-25.76c-6.07 0-10.98-4.911-10.98-10.961 0-6.051 4.91-10.95 10.98-10.95h25.76v-25.781c0-6.051 4.9-10.961 10.95-10.961 6.06 0 10.97 4.91 10.97 10.961v25.781h25.77c6.06 0 10.96 4.899 10.96 10.95 0 6.05-4.9 10.961-10.96 10.961h-25.77v25.769" style="fill:#b1c6e8;fill-opacity:1;fill-rule:evenodd;stroke:none" transform="matrix(.13333 0 0 -.13333 0 533.333)"/>
    <path d="M2129.36 510.102h-371.31c-15.26 0-29.14-6.243-39.2-16.301-10.05-10.063-16.29-23.93-16.29-39.199 0-15.27 6.24-29.161 16.29-39.204 10.06-10.046 23.94-16.289 39.2-16.289h371.31c15.28 0 29.15 6.243 39.2 16.289 10.06 10.043 16.31 23.934 16.31 39.204 0 15.269-6.25 29.136-16.31 39.199-10.05 10.058-23.92 16.301-39.2 16.301" style="fill:#167dca;fill-opacity:1;fill-rule:evenodd;stroke:none" transform="matrix(.13333 0 0 -.13333 0 533.333)"/>
    <path d="M1298.8 503.629h474.84c26.96 0 49.03-22.059 49.03-49.027 0-26.973-22.07-49.043-49.03-49.043H1298.8v98.07" style="fill:#fff;fill-opacity:1;fill-rule:evenodd;stroke:none" transform="matrix(.13333 0 0 -.13333 0 533.333)"/>
    <path d="M1298.8 510.102c-3.57 0-6.46-2.903-6.46-6.473s2.89-6.457 6.46-6.457h474.84c11.7 0 22.34-4.793 30.06-12.512 7.71-7.719 12.51-18.359 12.51-30.058 0-11.711-4.8-22.352-12.51-30.063-7.72-7.719-18.36-12.5-30.06-12.5H1298.8c-3.57 0-6.46-2.898-6.46-6.48 0-3.559 2.89-6.45 6.46-6.45h474.84c15.27 0 29.15 6.243 39.2 16.289 10.06 10.043 16.3 23.934 16.3 39.204 0 15.269-6.24 29.136-16.3 39.199-10.05 10.058-23.93 16.301-39.2 16.301H1298.8M2112.26 454.602c0 15.269-6.24 29.136-16.3 39.199-10.05 10.058-23.93 16.301-39.2 16.301h48.28c15.26 0 29.15-6.243 39.2-16.301 10.05-10.063 16.3-23.93 16.3-39.199 0-15.27-6.25-29.161-16.3-39.204-10.05-10.046-23.94-16.289-39.2-16.289h-48.28c15.27 0 29.15 6.243 39.2 16.289 10.06 10.043 16.3 23.934 16.3 39.204" style="fill:#1e4f86;fill-opacity:1;fill-rule:evenodd;stroke:none" transform="matrix(.13333 0 0 -.13333 0 533.333)"/>
    <path d="M2042.32 454.602c0 15.269-6.24 29.136-16.3 39.199-10.05 10.058-23.93 16.301-39.2 16.301h48.27c15.27 0 29.15-6.243 39.21-16.301 10.05-10.063 16.3-23.93 16.3-39.199 0-15.27-6.25-29.161-16.3-39.204-10.06-10.046-23.94-16.289-39.21-16.289h-48.27c15.27 0 29.15 6.243 39.2 16.289 10.06 10.043 16.3 23.934 16.3 39.204" style="fill:#1e4f86;fill-opacity:1;fill-rule:evenodd;stroke:none" transform="matrix(.13333 0 0 -.13333 0 533.333)"/>
    <path d="M1396.43 607.301h325.14c13.37 0 25.52-5.469 34.33-14.281 8.8-8.801 14.26-20.961 14.26-34.321 0-13.371-5.46-25.519-14.26-34.328-8.81-8.812-20.96-14.269-34.33-14.269h-325.14c-13.38 0-25.52 5.457-34.33 14.269-8.81 8.809-14.28 20.957-14.28 34.328 0 13.36 5.47 25.52 14.28 34.321 8.81 8.812 20.95 14.281 34.33 14.281" style="fill:#f0339b;fill-opacity:1;fill-rule:evenodd;stroke:none" transform="matrix(.13333 0 0 -.13333 0 533.333)"/>
    <path d="M2123.71 601.641h-415.79c-23.61 0-42.94-19.321-42.94-42.942 0-23.629 19.33-42.937 42.94-42.937h415.79v85.879" style="fill:#fff;fill-opacity:1;fill-rule:evenodd;stroke:none" transform="matrix(.13333 0 0 -.13333 0 533.333)"/>
    <path d="M2123.71 607.301a5.66 5.66 0 0 0 5.66-5.66c0-3.129-2.53-5.672-5.66-5.672h-415.79c-10.25 0-19.57-4.188-26.32-10.949-6.76-6.75-10.96-16.079-10.96-26.321 0-10.25 4.2-19.57 10.96-26.328 6.75-6.75 16.07-10.949 26.32-10.949h415.79c3.13 0 5.66-2.543 5.66-5.66 0-3.133-2.53-5.66-5.66-5.66h-415.79c-13.37 0-25.53 5.457-34.33 14.269-8.8 8.809-14.27 20.957-14.27 34.328 0 13.36 5.47 25.52 14.27 34.321 8.8 8.812 20.96 14.281 34.33 14.281h415.79M1411.4 558.699c0 13.36 5.47 25.52 14.28 34.321 8.8 8.812 20.95 14.281 34.32 14.281h-42.27c-13.37 0-25.53-5.469-34.33-14.281-8.8-8.801-14.27-20.961-14.27-34.321 0-13.371 5.47-25.519 14.27-34.328 8.8-8.812 20.96-14.269 34.33-14.269H1460c-13.37 0-25.52 5.457-34.32 14.269-8.81 8.809-14.28 20.957-14.28 34.328" style="fill:#da1c77;fill-opacity:1;fill-rule:evenodd;stroke:none" transform="matrix(.13333 0 0 -.13333 0 533.333)"/>
    <path d="M1472.64 558.699c0 13.36 5.47 25.52 14.28 34.321 8.8 8.812 20.96 14.281 34.33 14.281h-42.28c-13.37 0-25.52-5.469-34.32-14.281-8.81-8.801-14.28-20.961-14.28-34.321 0-13.371 5.47-25.519 14.28-34.328 8.8-8.812 20.95-14.269 34.32-14.269h42.28c-13.37 0-25.53 5.457-34.33 14.269-8.81 8.809-14.28 20.957-14.28 34.328" style="fill:#da1c77;fill-opacity:1;fill-rule:evenodd;stroke:none" transform="matrix(.13333 0 0 -.13333 0 533.333)"/>
    <path d="M4332.33 386.422H2735.41c-27.9 0-52.08 22.82-53.75 50.719v.007c-1.68 27.891 19.78 50.711 47.67 50.711h1596.93c27.89 0 52.08-22.82 53.75-50.711v-.007c1.67-27.899-19.79-50.719-47.68-50.719" style="fill:#9d9aae;fill-opacity:1;fill-rule:evenodd;stroke:none" transform="matrix(.13333 0 0 -.13333 0 533.333)"/>
    <path d="M4332.33 386.422H2735.41c-18.07 0-34.58 9.578-44.43 23.918 8.13 14.32 23.5 23.902 41.57 23.902h1596.91c18.07 0 34.58-9.582 44.43-23.902-8.13-14.34-23.49-23.918-41.56-23.918M4365.68 487.859H3088.41c-36.49 0-64.46 29.86-62.15 66.352l52.29 827.329c2.3 36.49 34.04 66.35 70.54 66.35h1277.26c36.51 0 64.48-29.86 62.16-66.35l-52.28-827.329c-2.31-36.492-34.05-66.352-70.55-66.352" style="fill:#8c8699;fill-opacity:1;fill-rule:evenodd;stroke:none" transform="matrix(.13333 0 0 -.13333 0 533.333)"/>
    <path d="M4365.69 487.859h-1239.6c-36.49 0-64.46 29.86-62.15 66.352l52.28 827.329c2.31 36.49 34.05 66.35 70.54 66.35h1239.6c36.5 0 64.46-29.86 62.15-66.35l-52.28-827.329c-2.31-36.492-34.05-66.352-70.54-66.352" style="fill:#fff;fill-opacity:1;fill-rule:evenodd;stroke:none" transform="matrix(.13333 0 0 -.13333 0 533.333)"/>
    <path d="m3274.58 1447.89 1153.5-921.949c4.61 8.598 7.51 18.18 8.15 28.27l8.13 128.66-957.18 765.019zm1023.56-960.031h-127.56L3113.16 1333.02l3.06 48.52c.92 14.49 6.48 27.94 15.14 38.87l1166.78-932.551" style="fill:#eeeaec;fill-opacity:1;fill-rule:evenodd;stroke:none" transform="matrix(.13333 0 0 -.13333 0 533.333)"/>
    <path d="M3025.63 386.422h-290.22c-27.9 0-52.08 22.82-53.75 50.719v.007c-1.68 27.891 19.78 50.711 47.67 50.711h290.23c27.89 0 52.08-22.82 53.75-50.711v-.007c1.67-27.899-19.79-50.719-47.68-50.719" style="fill:#fff;fill-opacity:1;fill-rule:evenodd;stroke:none" transform="matrix(.13333 0 0 -.13333 0 533.333)"/>
    <path d="M4353.13 462.5H3024.29c-13.94 0-26.03 11.41-26.87 25.359v.012c-.83 13.949 9.89 25.359 23.84 25.359h1328.83c13.95 0 26.05-11.41 26.88-25.359v-.012c.83-13.949-9.89-25.359-23.84-25.359" style="fill:#ccc5d0;fill-opacity:1;fill-rule:evenodd;stroke:none" transform="matrix(.13333 0 0 -.13333 0 533.333)"/>
    <path d="M2840.85 1512.97c-9.8 48.75-7.35 76.05 2.03 122.31l-209.41 17.67 291.46 127.74s61.85 75.9 91 150.44c29.16 74.55-49.91 264.11-79.63 311.14-29.72 47.03-91.44 40-132.1 14.55 0 0-61.05 92-133.93 98.15-72.89 6.15-304.54-15.2-371.83-185.2-67.29-170 40.98-339.92-67.39-514.8 0 0-9.55-22.12 4.52-40.76 14.07-18.64 184.93-217.77 574.36-137.54 0 0 31.03 7.21 30.91 36.31l.01-.01" style="fill:#0f1526;fill-opacity:1;fill-rule:evenodd;stroke:none" transform="matrix(.13333 0 0 -.13333 0 533.333)"/>
    <path d="M2566.4 1460.85c21.45 234.17 36.58 437.71 36.58 437.71l-19.88 65.99s-179.31-144.94-306.63 7.54c6.04-104.61 21-209.94-45.42-317.12 0 0-9.55-22.12 4.52-40.76l.56-.75.21-.25.5-.63.51-.63.32-.4.92-1.11.05-.05 1.11-1.31.31-.37.92-1.06.78-.9.6-.66 1.35-1.51.17-.17 1.64-1.79.37-.4 1.43-1.51 1-1.06.92-.95.67-.69 1.41-1.42 2.2-2.22 1.52-1.48 1.16-1.15c37.25-36.04 124.04-102.7 270.28-125.85l.42-.06c12.68-2 25.81-3.67 39.39-4.97l.11-.01" style="fill:#070a0d;fill-opacity:1;fill-rule:evenodd;stroke:none" transform="matrix(.13333 0 0 -.13333 0 533.333)"/>
    <path d="M2840.85 1512.97c-13.32 66.24-4.01 92.87 14.56 181.37l-333.24 52.44-145.62-28.22s-12.72-81.59-50.78-180.31c88.66-54.89 245.28-110.79 484.16-61.58 0 0 31.03 7.21 30.91 36.31l.01-.01" style="fill:#070a0d;fill-opacity:1;fill-rule:evenodd;stroke:none" transform="matrix(.13333 0 0 -.13333 0 533.333)"/>
    <path d="M2398.74 1498.58c92.2-28.93 218.26-63.51 326.95-116.94 7.51-3.71-7.79-32.63-.82-36.5 10.62-5.88 28.28-19.58 47.69-38.77 50.77-50.2 154.07-443.089 144.84-482.229-14.83-62.969-145.34-235.961-145.34-235.961-25.93-50.059-58.06-122.969-89.61-201.758h-648.23c45.15 146.769 61.96 246.187 63.15 335.797h.01c34.61 304.631-129.18 370.901-129.18 370.901l169.64 399.19c65.99 23.37 197.61 14.58 197.61 14.58 34.78.03 32.13 1.46 63.29-8.31" style="fill:#f0339b;fill-opacity:1;fill-rule:evenodd;stroke:none" transform="matrix(.13333 0 0 -.13333 0 533.333)"/>
    <path d="M2682.46 386.422h-91.5c17.05 45.629 96.36 261.398 113.32 307.449-77.1 13.418-183.23 31.82-201.94 36.27-18.72 4.461-90.38-36.493-90.38-36.493l7.96 46.571-76.93-77.481 131.54 245.653s214.67-48.469 260.27-56.782c45.6-8.3 17.79-1.988 26.27-1.308 25.36 71.34-16.17 91.308-11.23 125.84 4.93 34.529 6.38 369.429 6.38 369.429 27.75-14.37 40.27-45.61 55.97-94.9 10.32-32.43 65.14-245.58 87.82-371.65 5.4-29.989 9.67-52.43 12.37-70.329-50.85-129.671-165.03-260.23-229.92-422.269" style="fill:#da1c77;fill-opacity:1;fill-rule:evenodd;stroke:none" transform="matrix(.13333 0 0 -.13333 0 533.333)"/>
    <path d="m2558.82 1866.57-32.46-97.5s-49.08-230.08-60.44-259.92c-3.95-10.36-16.92-13.52-36.88-13.04 28.72-41.13 84.49-103.88 165.13-119.16 51.49-9.76 87.49-.15 111.93 14.27-17.21 9.09-33.68 19.89-33.61 28.75.71 78.53 14.19 216.72 56.75 242.28 48.74 29.27-170.42 204.32-170.42 204.32" style="fill:#f25159;fill-opacity:1;fill-rule:evenodd;stroke:none" transform="matrix(.13333 0 0 -.13333 0 533.333)"/>
    <path d="M2445.19 1496.77c-11.56-1.53-27.32-.44-46.45 1.81 19.83-28.6 51.85-60.71 103.2-93.25 127.14-80.56 188.36-36.66 207.72-15.96-11.89 6.09-23.96 13.12-30.99 19.89-118.65-57.98-233.47 87.51-233.47 87.51h-.01" style="fill:#fff;fill-opacity:1;fill-rule:evenodd;stroke:none" transform="matrix(.13333 0 0 -.13333 0 533.333)"/>
    <path d="M2720.54 1384.13s50.7-510.259 44.54-553.349c-6.16-43.109-86.76-255.429-157.42-444.359h121.49c24.01 46.238 42.34 82.34 45.68 91.047 2.16 5.621 10.56 21.941 22.1 43.32 20.77 38.441 51.78 93.242 75.15 131.609 74.48 122.282 74.28 93.731 48.5 236.973-22.69 126.059-92.32 359.339-102.64 391.769-15.7 49.29-84.25 106.58-97.4 102.99" style="fill:#18213d;fill-opacity:1;fill-rule:evenodd;stroke:none" transform="matrix(.13333 0 0 -.13333 0 533.333)"/>
    <path d="M2713.41 673.941c-16.7-46.679-36.12-99.839-56.27-154.41 36.94-3.199 66.44-6.902 76.89-11 36.94-14.511 40.8-31.062 40.8-31.062 2.16 5.621 10.56 21.941 22.1 43.32 20.77 38.441 51.77 93.242 75.15 131.609 22.4 36.782 38.03 59.911 48.26 78.172-14.33-12.578-37.19-31.57-48.32-34.941-13.45-4.078-116.98-16.707-158.61-21.688" style="fill:#0f1526;fill-opacity:1;fill-rule:evenodd;stroke:none" transform="matrix(.13333 0 0 -.13333 0 533.333)"/>
    <path d="M2379.65 1509.44s93.02-450.69 105.78-581.69c12.75-131-28.23-224.77-74.32-323.199-15.54-33.18-65.36-117.86-126.71-218.129h-286.44l30.64 707.948-82.15 19.03c4.88 35.57 8.87 65.02 11.6 85.66l161.73 285.93s60.96 49.46 259.87 24.45" style="fill:#18213d;fill-opacity:1;fill-rule:evenodd;stroke:none" transform="matrix(.13333 0 0 -.13333 0 533.333)"/>
    <path d="M2205.5 1292.51c-45.69-183.52-13.96-259.63-13.96-259.63l24.47 114.19s23.16-168.558 48.91-190.05c12.79-10.68 165.06-39.879 222.12-50.508 3.94-71.524-8.3-131.961-28.05-188.821-40.95-4.211-287.33 30.5-299.1-49.101-5.87-39.699-4.55 88.031-4.55 88.031l-14.58-370.199h-142.8l30.64 707.948-82.15 19.03.23 1.67.23 1.64.22 1.65.23 1.64.22 1.63.22 1.62.22 1.6.22 1.6.22 1.59.21 1.57.21 1.58h.01l.21 1.56.21 1.55.21 1.53v.01l.21 1.53.21 1.52.2 1.5.21 1.51.2 1.49.2 1.48.2 1.47h.01l.19 1.47.2 1.44v.01l.2 1.44.19 1.42.2 1.42.19 1.41v.01l.19 1.39.18 1.39.19 1.37.18 1.36v.01l.19 1.35.18 1.34v.01l.18 1.33.18 1.31.18 1.31v.01l.17 1.29v.01l.18 1.28v.01l.17 1.27.17 1.27.17 1.25.17 1.24.16 1.23v.01l.17 1.21.16 1.2v.01l.16 1.19.16 1.19v.01l.16 1.17.15 1.15.16 1.15.15 1.13v.01l.15 1.12.15 1.11v.01l.15 1.09.14 1.09v.01l.14 1.06.15 1.07.14 1.04v.01l.13 1.03v.01l.14 1.01v.01l.13 1.01v.01l.13.98v.01l.14.98v.01l.12.97 87.58 154.83 159.87-61.38" style="fill:#0f1526;fill-opacity:1;fill-rule:evenodd;stroke:none" transform="matrix(.13333 0 0 -.13333 0 533.333)"/>
    <path d="M1979 1285c-52.45-143.3-66.71-634.738-23.51-898.578h230.1c-94.11 523.719 103.56 898.328 60.12 1031.048-69.52 212.46-232.24-38.29-266.71-132.47" style="fill:#2c385e;fill-opacity:1;fill-rule:evenodd;stroke:none" transform="matrix(.13333 0 0 -.13333 0 533.333)"/>
    <path d="m3000.32 1896.56.03.05v.01zm-101.04-127.11 25.65 11.24s43.38 53.24 74.61 114.33c-6.1-11.62-46.51-82.27-105.67-39.09-64.31 46.97-66.91-27.41-66.91-27.41s38.91-44.2 61.51-54.53c2.92-1.34 6.6-2.88 10.81-4.54" style="fill:#070a0d;fill-opacity:1;fill-rule:evenodd;stroke:none" transform="matrix(.13333 0 0 -.13333 0 533.333)"/>
    <path d="M2872 1812.15c-40.28 4.16-76.33-25.11-80.5-65.41-4.18-40.29 25.1-76.34 65.39-80.51 40.29-4.17 76.34 25.11 80.51 65.41 4.18 40.28-25.1 76.33-65.4 80.51M2361.12 1864.22c-1.83-.08-3.64-.24-5.43-.46l-.06-.01h.01c-33.18-4.07-60.35-30.58-63.95-65.24-4.16-40.29 25.12-76.35 65.41-80.52 40.29-4.16 76.34 25.12 80.51 65.4 2.43 23.42-6.44 45.4-22.21 60.52.04-21.73-5.64-48.14-33.41-48.5l4.35 42.07c1.77 17.04-13.48 26.24-25.22 26.74" style="fill:#f25159;fill-opacity:1;fill-rule:evenodd;stroke:none" transform="matrix(.13333 0 0 -.13333 0 533.333)"/>
    <path d="M2677 2205.25c-137.45 14.23-261.53-86.57-275.77-224.02l-23.53-227.1c-14.23-137.45 86.57-261.54 224.02-275.78 137.44-14.22 261.54 86.57 275.78 224.02l23.52 227.11c14.23 137.44-86.57 261.54-224.02 275.77" style="fill:#f79675;fill-opacity:1;fill-rule:evenodd;stroke:none" transform="matrix(.13333 0 0 -.13333 0 533.333)"/>
    <path d="m2397.11 1941.41-19.41-187.28c-11.91-115.07 56.81-220.76 160.14-260.48-146.22 60.57-71.26 314.72-71.26 314.72 29.61 5.05 76.32 60.24 103.46 92.36 27.14 32.11 48.16 64.52 95.01 63.57 46.85-.95 145.86-25.55 145.86-25.55 20.7-48.93 58.76-84.54 80.5-101.98l9.6 92.7c2.87 27.69 1.07 54.83-4.76 80.65-6.06 3.56-12.27 7.16-18.85 10.86-201.21 113.13-371.99 21.61-480.29-79.57" style="fill:#f57867;fill-opacity:1;fill-rule:evenodd;stroke:none" transform="matrix(.13333 0 0 -.13333 0 533.333)"/>
    <path d="m2863.6 2000.55-40.63-17.26s-37.84 23.3-81.93 13.17c0 0-89.21 32.8-136.47 14.53-47.27-18.28-19.47 47.36-10.8 50.24 8.67 2.88 98.19 8.56 137.27 1.04 39.07-7.5 97.86-16.67 97.86-16.67l34.7-45.05M2388.45 1876.37l24.09-4.24s16.71-76.12-30.55-76.72l4.35 42.07c.31 2.93.1 5.62-.49 8.07l2.6 30.82" style="fill:#070a0d;fill-opacity:1;fill-rule:evenodd;stroke:none" transform="matrix(.13333 0 0 -.13333 0 533.333)"/>
    <path d="M2741.04 1996.46c-36.72 49.56-96.72 59.69-143.38-9.9-42.62-63.58-105.93-173.61-212.45-164.62l-.54 1.95.26-.03 5.99 70.99s-8.97-2.35-19.86-4.9c-5.68 37.09-9.64 84.12-3.68 127.22 12.34 89.21 136.45 219.51 276.46 224.54 140 5.02 241.28-78.12 261.35-125.54 20.06-47.43 39.86-154.98 39.86-154.98l-24.63-35.23-26.55-70.03c-64.4 62.65-57.78 121.9-85.77 151.75-15.16 16.16-37.82 16.21-67.06-11.22" style="fill:#0f1526;fill-opacity:1;fill-rule:evenodd;stroke:none" transform="matrix(.13333 0 0 -.13333 0 533.333)"/>
    <path d="M2583.09 1964.53c-42.24-63.93-102.87-150.6-197.88-142.59l-.54 1.95.26-.03 5.99 70.99s-8.97-2.35-19.86-4.9c-.94 6.13-1.83 12.54-2.64 19.18 107.3-31.15 214.32 55.12 214.67 55.4" style="fill:#070a0d;fill-opacity:1;fill-rule:evenodd;stroke:none" transform="matrix(.13333 0 0 -.13333 0 533.333)"/>
    <path d="M2693.52 1398.33s65.37-536.299 64.07-553.721c-1.28-17.41-18.66-101.277-18.66-101.277s31.56 52.906 39.3 96.77c7.74 43.859 28.39 340.538 28.39 340.538l-34.83 18.7 32.25 1.93-53.23 166.62s-6.1 12.37-14.48 17.2c-8.39 4.85-38.94 20.17-39.42 20.4-.49.25-8.15 1.08-11.95-1.44 0 0 6.33-4.32 8.56-5.72M2379.65 1509.44s93.02-450.69 105.78-581.69c5.23-53.699 1.42-101.141-8.06-145.23 17.13 134.019-171.46 449.34-171.46 449.34l49.02 23.22-65.78 29.67s30.31 169.62 32.24 197.99c1.88 27.59-12.74 32.71-13.56 32.99 21.65-.99 45.52-2.99 71.82-6.29" style="fill:#3c486a;fill-opacity:1;fill-rule:evenodd;stroke:none" transform="matrix(.13333 0 0 -.13333 0 533.333)"/>
    <path d="M258.098 399.109c25.871 0 46.851-20.98 46.851-46.859 0-25.859-20.98-46.852-46.851-46.852s-46.852 20.993-46.852 46.852c0 25.879 20.981 46.859 46.852 46.859zm260.3-211.73h81.442c32.461 0 59.027 26.551 59.027 59.012s-26.566 59.019-59.027 59.019H384.684c-25.743 0-46.848 21.078-46.848 46.84 0 25.77 21.086 46.859 46.848 46.859H6068.84c25.77 0 46.85-21.089 46.85-46.859 0-25.762-21.11-46.84-46.85-46.84h-295.06c-32.47 0-59.03-26.558-59.03-59.019s26.56-59.012 59.03-59.012h69.15c51.53 0 93.68-42.168 93.68-93.688 0-51.543-42.19-93.703-93.68-93.703H518.398c-51.476 0-93.683 42.16-93.683 93.703 0 51.52 42.164 93.688 93.683 93.688" style="fill:#050708;fill-opacity:1;fill-rule:evenodd;stroke:none" transform="matrix(.13333 0 0 -.13333 0 533.333)"/>
    <path d="M3000.85 2837.06h427.01c15.88 0 30.31-6.5 40.78-16.97 10.47-10.47 16.97-24.91 16.97-40.78v-197.26c0-15.88-6.5-30.31-16.97-40.78-10.47-10.47-24.9-16.97-40.78-16.97h-371.12l-113.64-113.65v368.66c0 15.87 6.5 30.31 16.98 40.78 10.46 10.47 24.9 16.97 40.77 16.97zm427.01 17.59h-427.01c-20.72 0-39.56-8.47-53.21-22.13-13.65-13.65-22.13-32.49-22.13-53.21v-371.95c0-3.27.98-6.37 2.74-9.02 1.75-2.61 4.24-4.69 7.27-5.95h.04c3.06-1.26 6.28-1.57 9.31-.96 3.12.62 6.01 2.12 8.34 4.46l110.81 110.82h363.84c20.72 0 39.57 8.47 53.21 22.12 13.65 13.65 22.13 32.49 22.13 53.22v197.26c0 20.73-8.48 39.57-22.13 53.21-13.64 13.66-32.49 22.13-53.21 22.13" style="fill:#122235;fill-opacity:1;fill-rule:evenodd;stroke:none" transform="matrix(.13333 0 0 -.13333 0 533.333)"/>
    <path d="M3431.41 2781.1a4.806 4.806 0 1 1 0 9.61H2997.3a4.806 4.806 0 1 1 0-9.61h434.11M3324.21 2734.18c2.65 0 4.8 2.16 4.8 4.82 0 2.65-2.15 4.8-4.8 4.8H2997.3c-2.66 0-4.81-2.15-4.81-4.8 0-2.66 2.15-4.82 4.81-4.82zm107.2 0c2.66 0 4.81 2.16 4.81 4.82 0 2.65-2.15 4.8-4.81 4.8h-45.98c-2.65 0-4.81-2.15-4.81-4.8a4.82 4.82 0 0 1 4.81-4.82h45.98M3431.41 2687.27c2.66 0 4.81 2.16 4.81 4.81 0 2.66-2.15 4.81-4.81 4.81H2997.3c-2.66 0-4.81-2.15-4.81-4.81 0-2.65 2.15-4.81 4.81-4.81h434.11M3310.69 2623.67c2.66 0 4.8 2.16 4.8 4.81 0 2.66-2.14 4.81-4.8 4.81H2997.3c-2.66 0-4.81-2.15-4.81-4.81 0-2.65 2.15-4.81 4.81-4.81h313.39M3170.75 2572.78c2.66 0 4.81 2.16 4.81 4.82 0 2.65-2.15 4.8-4.81 4.8H2997.3c-2.66 0-4.81-2.15-4.81-4.8 0-2.66 2.15-4.82 4.81-4.82h173.45M3270.14 2572.78a4.82 4.82 0 0 1 4.81 4.82c0 2.65-2.16 4.8-4.81 4.8h-62.01c-2.66 0-4.82-2.15-4.82-4.8 0-2.66 2.16-4.82 4.82-4.82h62.01" style="fill:#122235;fill-opacity:1;fill-rule:evenodd;stroke:none" transform="matrix(.13333 0 0 -.13333 0 533.333)"/>
</svg>
