<svg version="1.0" xmlns="http://www.w3.org/2000/svg" fill="#5F6CAF" width="240" height="240" viewBox="0 0 180 180"><path d="M54.9 23C33.7 28.5 14.8 46 7.5 66.8c-5.4 15.4-5.7 29.9-.9 44.1 4.2 12.4 8.2 18.9 17.4 28.2 7 7 10.1 9.4 17 12.7 11.1 5.3 19.7 7.5 29.5 7.5 13.8 0 26.8-5.2 36.4-14.4 6.1-5.9 8.8-10.1 12.5-19.6 4.7-12.3 11.7-15.6 19.1-9.2l3.5 3.1v-2.8c0-6.9 7.3-13.4 15-13.4 9.1 0 15.4 6.7 14.7 15.8-.2 2.8-.2 5.2 0 5.2 1.3 0 4.5-10.6 5-16.1 1.4-16.4-10.7-35.1-25.1-39-2.2-.6-5.1-1.5-6.4-2-1.3-.5-4.5-.9-7.2-.9s-5.9.4-7.2.9c-1.3.5-4.2 1.4-6.5 2-2.3.6-6.3 2.7-8.8 4.7l-4.7 3.5-5.3-3.7c-3-2-7.8-4.4-10.7-5.2-7-2-16.7-2.7-18.1-1.3-.6.6-2.1 1.1-3.4 1.1-6.5 0-19.2 9.6-24.1 18.3-5.4 9.5-6.6 22.9-2.8 31.9 2.2 5.2 3.2 5.3 2.8.3-.5-5.2 3.2-11.6 8-14.1 4.5-2.4 13-1.5 16.4 1.7 3.3 3.1 5.4 7.1 5.4 10.4 0 2.9.7 3.1 3.3.8 1.1-1.1 3.5-1.8 5.9-1.8 3.4 0 4.5.6 6.9 3.5 3.5 4.1 3.6 5.6.7 11.6-4.6 9.9-15.4 17.9-27.1 20.4-21.5 4.4-43.3-12.8-51.8-41-1.7-5.6-1.9-30.6-.3-34.1.7-1.3 1.9-4.5 2.9-7.1C23 58.7 31.9 47.3 41.4 40.5 53.3 32.1 65.9 28 80.2 28c16.2.1 31.2 5.9 43.7 17 5.7 5 4.9 3.4-1.4-3.1-3.3-3.3-9.4-8.2-13.6-10.8-6.8-4.2-10.3-5.6-22.5-9.2-5-1.5-24.2-.8-31.5 1.1z"/><path d="M101.7 55.6c-1 1.1 5.1 12.2 7.4 13.5 1.8.9 2.5.8 4-.7 2.7-2.7 6.9-11.8 5.9-12.8-.5-.5-2.4.1-4.5 1.4l-3.7 2.3-3.8-2.2c-4.2-2.3-4.4-2.4-5.3-1.5z"/></svg>
